<?xml version="1.0" encoding="UTF-8" standalone="no"?>
<!-- Created with Inkscape (http://www.inkscape.org/) -->

<svg
   xmlns:dc="http://purl.org/dc/elements/1.1/"
   xmlns:cc="http://creativecommons.org/ns#"
   xmlns:rdf="http://www.w3.org/1999/02/22-rdf-syntax-ns#"
   xmlns:svg="http://www.w3.org/2000/svg"
   xmlns="http://www.w3.org/2000/svg"
   xmlns:xlink="http://www.w3.org/1999/xlink"
   xmlns:sodipodi="http://sodipodi.sourceforge.net/DTD/sodipodi-0.dtd"
   xmlns:inkscape="http://www.inkscape.org/namespaces/inkscape"
   width="141mm"
   height="100mm"
   viewBox="0 0 141 100"
   version="1.1"
   id="svg399"
   inkscape:version="0.92.0 r"
   sodipodi:docname="drawing.svg">
  <defs
     id="defs393" />
  <sodipodi:namedview
     id="base"
     pagecolor="#ffffff"
     bordercolor="#666666"
     borderopacity="1.0"
     inkscape:pageopacity="0.0"
     inkscape:pageshadow="2"
     inkscape:zoom="1.979899"
     inkscape:cx="246.70088"
     inkscape:cy="205.78638"
     inkscape:document-units="mm"
     inkscape:current-layer="layer1"
     showgrid="false"
     inkscape:window-width="1916"
     inkscape:window-height="1135"
     inkscape:window-x="0"
     inkscape:window-y="44"
     inkscape:window-maximized="0"
     width="100mm" />
  <metadata
     id="metadata396">
    <rdf:RDF>
      <cc:Work
         rdf:about="">
        <dc:format>image/svg+xml</dc:format>
        <dc:type
           rdf:resource="http://purl.org/dc/dcmitype/StillImage" />
        <dc:title />
      </cc:Work>
    </rdf:RDF>
  </metadata>
  <g
     inkscape:label="Layer 1"
     inkscape:groupmode="layer"
     id="layer1"
     transform="translate(0,-197)">
    <g
       id="g433"
       clip-path="none">
      <g
         inkscape:label="Clip"
         id="g431">
        <g
           transform="translate(-21.381562,-21.381562)"
           id="g427">
          <path
             d="m 163.04192,43.018048 c -5.45042,-0.0265 -10.66271,-1.61396 -13.99646,-3.09563 6.69396,2.14313 11.32417,-0.47625 12.27667,-1.50812 0,0 -2.09021,-0.15875 -6.19125,0.0794 2.77812,-0.15875 5.84729,-2.69875 6.32354,-3.62479 -5.23875,1.53458 -10.98021,1.77271 -15.92792,0.82021 8.67833,1.24354 12.7,-3.12209 13.17625,-4.31271 -6.64104,3.04271 -11.72104,2.88396 -15.16062,2.59291 6.42937,0 9.26041,-2.93687 9.73666,-3.4925 0.47625,-0.55562 -1.24354,0.3175 -7.22312,1.7198 -5.97959,1.40229 -8.70479,0.26458 -13.44084,-0.82021 -4.73604,-1.05834 -6.40291,0.0265 -8.04333,0.79375 -1.61396,0.76729 -5.66208,1.93146 -10.13354,1.85208 -4.47146,-0.0529 -7.51417,-2.40771 -7.51417,-2.40771 0,0 -0.0265,0 -0.0794,0 -0.15875,-0.18521 -0.37042,-0.34396 -0.37042,-0.34396 0,0 -0.21167,-0.10583 -0.97896,-0.84667 -0.79375,-0.74083 -0.97896,-1.21708 -1.34937,-1.85208 -0.39688,-0.635 -0.52917,-1.27 -0.42334,-2.16958 0.10584,-0.89959 0.0265,-1.69334 0.0265,-1.85209 0,0 0,-0.0265 -0.0265,-0.0265 0.10584,-0.26458 0.37042,-0.84666 0.44979,-0.79374 0.1323,0.1852 0.15875,0.10583 0.18521,0.47624 0.23813,-0.79375 0.26459,-1.27 0.0529,-1.7727 -0.21167,-0.50271 -0.68792,-1.32292 -2.01083,-0.7673 h -0.0265 c -0.3175,0.1323 -0.52917,0.23813 -0.68792,0.3175 -0.29104,0.10584 -0.60854,0.21167 -0.84667,0.29105 -0.52916,0.13229 -1.640407,0.42333 -2.936867,2.11666 -1.32292,1.69334 -1.79917,3.4925 -2.32833,4.97417 -0.3175,0.89958 -0.60855,1.32292 -0.7673,1.50812 -0.0794,0.0265 -0.23812,0.15875 -0.52916,0.34396 -1.19063,0.82021 -4.04813,1.905 -9.07521,2.38125 -5.05354,0.50271 -11.80042,-1.05833 -15.24,-1.77271 -3.41313,-0.68791 -6.37646,-0.635 -9.36625,-0.37041 -2.98979,0.26458 -10.42458,0.82021 -13.81125,0.9525 -8.22854,0.0529 -13.07042,-3.94229 -14.49917,-4.97417 2.03729,5.10646 7.27604,5.52979 10.92729,6.00604 -10.58333,0.47625 -16.13958,-3.83646 -18.38854,-5.63562 3.175,6.11187 10.08063,7.01146 15.21354,7.24958 -7.54062,1.98438 -14.9225,-0.84667 -18.62666,-2.54 3.65125,5.42396 11.72104,4.60375 17.03916,4.68313 -6.27062,1.98437 -14.49916,0.71437 -16.72166,0.34395 2.98979,4.02167 13.07041,2.06375 13.99646,1.93146 0.92604,-0.13229 1.5875,-0.23812 2.24895,0.23813 -3.09562,1.24354 -10.63625,2.8575 -15.1077,3.57187 0.87312,0.66146 7.72583,0.50271 14.68437,-0.18521 -0.87312,0.66146 -7.14375,3.06917 -9.8425,4.28625 1.50813,0.87313 6.58813,-0.21166 7.96396,-0.58208 1.34937,-0.37042 0.68792,0.23813 0.39687,0.74083 -0.29104,0.50271 -0.92604,0.79376 -1.98437,1.4023 -1.05833,0.58208 1.69333,1.11125 2.96333,0.82021 1.27,-0.29105 1.66688,0.23812 1.56104,0.44979 -0.10583,0.23812 2.59292,1.27 3.175,1.13771 0.55563,-0.1323 1.32292,-0.0529 1.56105,0.29104 0.26458,0.34396 2.64583,1.37583 3.14854,1.13771 0.50271,-0.26459 0.37041,-0.10584 0.92604,0.66145 0.52917,0.7673 1.77271,0.89959 2.69875,0.26459 0.89958,-0.635 0.74083,-0.58209 1.16417,-0.44979 0.42333,0.15875 0.9525,0.58208 1.61395,0.89958 0.66146,0.3175 1.32292,0.60854 1.87855,1.00542 0.55562,0.39687 2.69875,1.19062 2.8575,0.635 0.0265,0.58208 2.19604,0.635 2.38125,-0.34396 -0.0265,0.26458 1.27,1.24354 1.50812,1.00541 0.10583,0.34396 2.11667,1.21709 2.35479,0.71438 0.21167,0.47625 2.14313,0.23812 2.61938,0.0794 0.52916,0.74083 2.56646,0.92604 2.61937,0.21167 0.0265,0.26458 1.56104,0.71437 1.95792,0.37041 -0.13229,0.79375 1.87854,0.66146 2.03729,0.23813 0.15875,0.3175 2.2225,0.66146 2.54,0.26458 0.52917,0.58208 2.67229,0.55563 2.51354,0.0265 0.39688,0.66146 2.83104,-0.18521 2.93688,-0.58208 0.42333,0.60854 3.4925,0.58208 3.4925,0.13229 0.29104,0.52917 1.98437,0.39687 1.93146,0.0529 0.42333,0.37042 1.98437,-1.08479 2.03729,-1.40229 0.15875,0.13229 1.08479,0.39687 1.21708,0 0.47625,0.84666 2.96333,0 2.93688,-0.60854 0,0 0.84666,-0.1323 1.19062,-0.89959 0.0265,0.13229 0.0794,0.0794 0.66146,0.60854 0.55562,0.55563 0.18521,0.47625 0.13229,1.00542 -0.0529,0.52917 -1.24354,1.71979 -1.95792,3.14854 -0.74083,1.45521 -5.00062,8.78417 -5.45041,10.31875 -0.47625,1.50813 1.5875,1.66688 2.30187,1.64042 0.26459,2.16958 2.67229,1.77271 2.96334,1.50812 0.3175,1.27 1.08479,2.32834 1.71979,2.38125 0.55562,1.50813 1.93146,1.5875 2.16958,1.48167 0.21167,0.37042 1.29646,0.71438 1.45521,0.34396 0.92604,1.08479 1.87854,-0.0265 2.328327,-0.87313 0.84667,2.64584 2.54,1.11125 2.48709,0.58209 0.5027,0.79375 2.14312,0.87312 2.69875,-0.0529 1.71979,0.92604 2.91041,-0.50271 2.7252,-1.11125 0.3175,0.13229 1.42875,-0.76729 1.4023,-1.45521 0.66145,0.55563 2.88395,-0.44979 2.64583,-1.77271 2.48708,0.79375 2.83104,-1.56104 2.54,-2.38125 -0.29104,-0.84666 -1.03188,-2.03729 -1.66688,-3.46604 -0.635,-1.40229 -3.57187,-7.06437 -3.91583,-7.72583 -0.34396,-0.635 -1.19062,-2.35479 -1.19062,-2.35479 -0.37042,-0.74084 0.3175,-1.50813 0.84666,-1.905 -0.0794,1.05833 1.87854,2.11666 2.32834,1.87854 0.0529,0.44979 1.42875,0.21166 2.2225,-0.13229 -0.21167,1.87854 1.32291,2.4077 1.79916,2.16958 0.0794,0.42333 1.85209,1.13771 2.43417,0.52917 0.23812,0.74083 2.14312,0.44979 2.69875,-0.26459 -0.0794,0.50271 1.93146,0.52917 2.51354,0.34396 0.0529,0.74083 1.85209,0.52917 2.27542,0.15875 0.26458,0.26458 1.03187,-0.0529 1.50812,-0.21167 0.15875,0.29105 1.13771,0.34396 1.16417,0.0794 0.13229,0.18521 2.24896,-0.71437 2.56646,-0.58208 0.3175,0.13229 0.82021,0.23813 0.79375,-0.26458 -0.0265,-0.52917 0.21167,-0.79375 0.66146,-0.37042 0.44979,0.39688 1.05833,-0.3175 1.19062,-0.97896 0.13229,-0.66146 0.66146,-0.21166 1.03188,0.44979 0.37041,0.68792 1.16416,-0.15875 1.03187,-0.89958 -0.13229,-0.74083 0.29104,-0.42333 1.00542,0.15875 0.71437,0.60854 1.50812,0.60854 1.48167,-0.42333 -0.0265,-1.00542 0.13229,-0.68792 1.00541,-0.29104 0.87313,0.42333 1.42875,-0.23813 1.50813,-0.58209 0.0794,-0.3175 -0.58209,-0.60854 0.58208,-0.39687 1.16417,0.21166 1.37583,-0.47625 1.21708,-1.05834 -0.1852,-0.58208 1.32292,-0.42333 2.06375,0.23813 0.74084,0.66146 1.82563,-0.18521 1.905,-0.52917 0.0794,-0.34396 0.42334,-0.66146 1.61396,-0.47625 1.16417,0.15875 1.37584,-0.68791 1.37584,-1.21708 0,-0.52917 0.37041,-0.37042 1.19062,-0.37042 0.84667,-0.0265 1.66688,-0.97896 1.74625,-1.45521 0.0529,-0.47625 1.82563,0.0265 3.4925,0 1.64042,-0.0529 -0.13229,-1.08479 -2.56646,-3.06916 1.08479,0.21166 6.95854,0.9525 8.59896,0.0265 -0.58208,-0.1323 -5.55625,-1.82563 -9.73667,-3.86292 3.65125,0.71437 9.94834,0.87312 11.53584,-0.55563 z"
             class="g3_1"
             id="path312"
             inkscape:connector-curvature="0"
             style="display:block;fill-rule:evenodd;stroke-width:0.26458332" />
        </g>
      </g>
    </g>
    <use
       height="100%"
       width="100%"
       id="use437"
       xlink:href="#g431"
       y="0"
       x="0"
       transform="matrix(0.9924517,0,0,1.0188728,0.22700318,196.99905)"
       style="fill:#ff6600" />
    <text
       xml:space="preserve"
       style="font-style:normal;font-weight:normal;font-size:17.79925728px;line-height:11.12453651px;font-family:sans-serif;letter-spacing:0px;word-spacing:0px;fill:#000000;fill-opacity:1;stroke:none;stroke-width:0.44498146"
       x="141.09547"
       y="293.58313"
       id="text14"
       transform="scale(1.0020394,0.99796475)"><tspan
         sodipodi:role="line"
         id="tspan12"
         x="141.09547"
         y="293.58313"
         style="font-size:42.71821976px;stroke-width:0.44498146">A</tspan></text>
    <path
       style="fill:#ff6600;stroke-width:0.13363476"
       d="m 64.955157,283.75058 c 0.05009,-0.13049 2.712821,-7.07768 5.917174,-15.4382 l 5.826095,-15.20096 h 2.36047 2.360472 l 5.763371,15.06732 c 3.169854,8.28703 5.824823,15.23269 5.899928,15.43482 l 0.136557,0.36749 H 91.103256 88.98729 l -1.396166,-3.90881 -1.396167,-3.90882 -7.097024,-0.0346 -7.097025,-0.0346 -0.213079,0.56911 c -0.117192,0.31302 -0.747909,2.07251 -1.401591,3.90999 l -1.188511,3.34086 -2.166824,0.0368 c -2.028743,0.0344 -2.161021,0.0217 -2.075746,-0.20045 z m 19.828081,-11.30653 c -0.111596,-0.45985 -5.664469,-15.31766 -5.725773,-15.32043 -0.06087,-0.003 -5.605585,14.84874 -5.719596,15.31991 -0.03555,0.14691 0.979112,0.17857 5.722686,0.17857 4.735277,0 5.758169,-0.0318 5.722683,-0.17805 z"
       id="path16"
       inkscape:connector-curvature="0" />
    <path
       style="fill:#ff6600;stroke-width:0.13363476"
       d="m 165.88567,258.88942 c 0.0744,-0.39698 -0.32079,-1.58063 -0.45513,-1.36327 -0.0634,0.10262 -0.13051,0.0335 -0.18737,-0.19308 -0.0487,-0.19411 -0.0578,-0.40279 -0.0201,-0.46373 0.0377,-0.0609 -0.0284,-0.39501 -0.14672,-0.74237 -0.1313,-0.38535 -0.2537,-0.56924 -0.31398,-0.47171 -0.0634,0.10263 -0.13051,0.0335 -0.18738,-0.19308 -0.0487,-0.19411 -0.0578,-0.40279 -0.0201,-0.46373 0.0377,-0.0609 -0.0284,-0.39501 -0.14671,-0.74236 -0.1313,-0.38536 -0.25371,-0.56925 -0.31399,-0.47171 -0.0634,0.10262 -0.1305,0.0335 -0.18737,-0.19308 -0.0487,-0.19411 -0.0578,-0.40279 -0.0201,-0.46374 0.0377,-0.0609 -0.0284,-0.395 -0.14671,-0.74236 -0.13131,-0.38535 -0.25371,-0.56924 -0.31399,-0.47171 -0.0634,0.10262 -0.13051,0.0335 -0.18738,-0.19308 -0.0487,-0.19411 -0.0624,-0.39527 -0.0304,-0.44701 0.032,-0.0518 -3.15335,-0.064 -7.0786,-0.0273 -3.92526,0.0367 -7.15702,0.0367 -7.18169,0 -0.0247,-0.0367 -0.0247,0.0131 -6e-5,0.11084 0.0742,0.29419 -0.11131,0.87045 -0.22235,0.69078 -0.0624,-0.10105 -0.15305,-0.002 -0.24799,0.26993 -0.0823,0.23602 -0.11747,0.48112 -0.0782,0.54466 0.0393,0.0635 -0.002,0.35946 -0.091,0.65759 -0.0922,0.30771 -0.20282,0.47665 -0.2559,0.39077 -0.0555,-0.0898 -0.15427,0.0231 -0.24309,0.27786 -0.0823,0.23602 -0.11841,0.4796 -0.0803,0.54127 0.0381,0.0617 0.0294,0.27096 -0.0193,0.46507 -0.0569,0.22658 -0.12395,0.2957 -0.18737,0.19308 -0.0603,-0.0975 -0.18268,0.0864 -0.31399,0.47171 -0.11835,0.34736 -0.18343,0.68295 -0.14461,0.74576 0.0388,0.0628 -0.002,0.35813 -0.0918,0.65625 -0.0922,0.30771 -0.20282,0.47665 -0.25589,0.39078 -0.13404,-0.21687 -0.39048,0.5907 -0.30735,0.96786 0.0545,0.24725 0.0394,0.26932 -0.0749,0.10933 -0.10083,-0.14114 -0.14379,-0.15003 -0.14523,-0.03 -0.002,0.13243 -0.471,0.16223 -2.1051,0.13363 -1.98534,-0.0347 -2.10542,-0.0518 -2.14534,-0.30407 -0.0313,-0.19816 -0.0104,-0.22075 0.081,-0.0874 0.16471,0.24043 0.43261,-0.50594 0.33711,-0.93921 -0.0471,-0.21387 -0.0299,-0.25591 0.0557,-0.13577 0.16792,0.23562 0.70765,-1.17094 0.61329,-1.59823 -0.0493,-0.22321 -0.0325,-0.26141 0.0585,-0.13312 0.16935,0.23867 0.43819,-0.50065 0.34152,-0.93921 -0.0483,-0.21936 -0.0313,-0.25776 0.0583,-0.13154 0.1721,0.24225 0.30604,-0.0977 0.20991,-0.53286 -0.0494,-0.22348 -0.0326,-0.26188 0.0584,-0.13364 0.16935,0.23867 0.43819,-0.50066 0.34152,-0.93921 -0.0483,-0.21936 -0.0313,-0.25776 0.0583,-0.13154 0.1721,0.24225 0.30603,-0.0977 0.20991,-0.53286 -0.0494,-0.22349 -0.0326,-0.26188 0.0584,-0.13364 0.16935,0.23867 0.43819,-0.50066 0.34152,-0.93921 -0.0483,-0.21936 -0.0313,-0.25776 0.0584,-0.13154 0.1721,0.24225 0.30603,-0.0977 0.20991,-0.53286 -0.0494,-0.22349 -0.0326,-0.26188 0.0584,-0.13364 0.16935,0.23867 0.43819,-0.50066 0.34152,-0.93921 -0.0471,-0.21388 -0.0299,-0.25592 0.0557,-0.13578 0.16792,0.23562 0.70766,-1.17094 0.61329,-1.59823 -0.0493,-0.22321 -0.0325,-0.26141 0.0585,-0.13311 0.16935,0.23866 0.43819,-0.50066 0.34153,-0.93921 -0.0483,-0.21937 -0.0313,-0.25776 0.0583,-0.13154 0.17209,0.24225 0.30603,-0.0977 0.20991,-0.53286 -0.0494,-0.22349 -0.0326,-0.26188 0.0584,-0.13365 0.16934,0.23867 0.43818,-0.50065 0.34152,-0.93921 -0.0483,-0.21936 -0.0313,-0.25776 0.0583,-0.13154 0.1721,0.24225 0.30603,-0.0977 0.20991,-0.53285 -0.0494,-0.22349 -0.0326,-0.26189 0.0584,-0.13365 0.16934,0.23867 0.43818,-0.50065 0.34152,-0.93921 -0.0483,-0.21936 -0.0313,-0.25776 0.0584,-0.13154 0.1721,0.24225 0.30603,-0.0977 0.20991,-0.53285 -0.0494,-0.22349 -0.0326,-0.26189 0.0584,-0.13365 0.16934,0.23867 0.43818,-0.50065 0.34152,-0.93921 -0.0471,-0.21387 -0.0299,-0.25591 0.0557,-0.13577 0.16791,0.23561 0.70765,-1.17094 0.61328,-1.59824 -0.0493,-0.2232 -0.0325,-0.2614 0.0585,-0.13311 0.16935,0.23867 0.43819,-0.50066 0.34153,-0.93921 -0.0483,-0.21936 -0.0313,-0.25776 0.0583,-0.13154 0.17209,0.24225 0.30603,-0.0977 0.2099,-0.53286 -0.0494,-0.22349 -0.0326,-0.26188 0.0584,-0.13364 0.16935,0.23866 0.43819,-0.50066 0.34152,-0.93921 -0.0483,-0.21936 -0.0313,-0.25776 0.0583,-0.13154 0.1721,0.24225 0.30604,-0.0977 0.20991,-0.53286 -0.0494,-0.22349 -0.0326,-0.26188 0.0584,-0.13364 0.16935,0.23866 0.43819,-0.50066 0.34152,-0.93921 -0.0483,-0.21936 -0.0313,-0.25776 0.0584,-0.13154 0.1721,0.24225 0.30603,-0.0977 0.20991,-0.53286 -0.0494,-0.22349 -0.0326,-0.26188 0.0584,-0.13365 0.16935,0.23867 0.43818,-0.50065 0.34152,-0.93921 -0.0488,-0.22147 -0.0319,-0.25849 0.0594,-0.12986 0.16935,0.23866 0.43819,-0.50066 0.34152,-0.93921 -0.0483,-0.21937 -0.0313,-0.25776 0.0583,-0.13154 0.1721,0.24225 0.30603,-0.0977 0.20991,-0.53286 -0.0494,-0.22349 -0.0326,-0.26188 0.0584,-0.13365 0.16935,0.23867 0.43818,-0.50065 0.34152,-0.93921 -0.0483,-0.21936 -0.0313,-0.25775 0.0583,-0.13154 0.1721,0.24225 0.30603,-0.0977 0.20991,-0.53285 -0.0477,-0.21606 -0.0307,-0.2594 0.0549,-0.13936 0.0883,0.124 0.22012,-0.0878 0.45717,-0.73499 l 0.33304,-0.9092 h 2.31608 2.31608 l 0.33304,0.9092 c 0.23705,0.64715 0.36881,0.85899 0.45716,0.73499 0.0858,-0.12041 0.10305,-0.0786 0.0558,0.13558 -0.0967,0.43856 0.17218,1.17788 0.34152,0.93921 0.091,-0.12823 0.10777,-0.0898 0.0584,0.13365 -0.0961,0.43512 0.0378,0.7751 0.20991,0.53285 0.0897,-0.12622 0.1067,-0.0878 0.0583,0.13154 -0.0967,0.43856 0.17217,1.17788 0.34152,0.93921 0.091,-0.12823 0.10777,-0.0898 0.0584,0.13365 -0.0961,0.43512 0.0378,0.7751 0.20991,0.53285 0.0897,-0.12622 0.1067,-0.0878 0.0583,0.13154 -0.0965,0.43763 0.17221,1.17819 0.34074,0.93921 0.0888,-0.12598 0.10528,-0.0794 0.0548,0.15528 -0.0396,0.18436 -0.0153,0.4249 0.054,0.53454 0.11154,0.17643 0.12723,0.17631 0.13654,-0.001 0.006,-0.11025 0.069,-0.054 0.14051,0.12491 0.0715,0.17895 0.0996,0.40446 0.0625,0.50113 -0.0371,0.0967 -0.0309,0.27102 0.0138,0.38743 0.066,0.172 0.10494,0.17826 0.20785,0.0334 0.0897,-0.12622 0.1067,-0.0878 0.0583,0.13154 -0.0967,0.43855 0.17217,1.17788 0.34152,0.93921 0.091,-0.12824 0.10776,-0.0898 0.0584,0.13365 -0.0961,0.43512 0.0378,0.7751 0.20991,0.53285 0.0897,-0.12622 0.1067,-0.0878 0.0583,0.13154 -0.0965,0.43762 0.17221,1.17819 0.34074,0.93921 0.0889,-0.12599 0.10528,-0.0794 0.0548,0.15528 -0.0396,0.18435 -0.0154,0.4249 0.054,0.53453 0.11154,0.17644 0.12723,0.17631 0.13654,-0.001 0.006,-0.11025 0.069,-0.054 0.14051,0.12491 0.0715,0.17895 0.0996,0.40445 0.0625,0.50113 -0.0371,0.0967 -0.0309,0.27101 0.0138,0.38742 0.066,0.172 0.10494,0.17826 0.20785,0.0334 0.0897,-0.12622 0.1067,-0.0878 0.0583,0.13154 -0.0967,0.43856 0.17217,1.17788 0.34152,0.93921 0.091,-0.12823 0.10776,-0.0898 0.0584,0.13365 -0.0961,0.43512 0.0378,0.7751 0.20991,0.53285 0.0897,-0.12621 0.1067,-0.0878 0.0583,0.13155 -0.0967,0.43855 0.17217,1.17787 0.34152,0.93921 0.091,-0.12824 0.10776,-0.0899 0.0584,0.13364 -0.0961,0.43512 0.0378,0.77511 0.20991,0.53286 0.0897,-0.12622 0.1067,-0.0878 0.0583,0.13154 -0.0967,0.43855 0.17217,1.17787 0.34152,0.93921 0.0913,-0.12863 0.1082,-0.0916 0.0594,0.12986 -0.0967,0.43856 0.17218,1.17788 0.34152,0.93921 0.091,-0.12823 0.10777,-0.0898 0.0584,0.13365 -0.0961,0.43512 0.0378,0.77511 0.20991,0.53286 0.0897,-0.12622 0.1067,-0.0878 0.0583,0.13154 -0.0967,0.43855 0.17218,1.17787 0.34152,0.93921 0.091,-0.12824 0.10777,-0.0898 0.0584,0.13364 -0.0961,0.43512 0.0378,0.77511 0.20991,0.53286 0.0897,-0.12622 0.10671,-0.0878 0.0584,0.13154 -0.0967,0.43855 0.17218,1.17788 0.34152,0.93921 0.0913,-0.12863 0.1082,-0.0916 0.0594,0.12987 -0.0967,0.43855 0.17218,1.17787 0.34153,0.93921 0.091,-0.12824 0.10776,-0.0899 0.0584,0.13364 -0.0961,0.43512 0.0378,0.77511 0.2099,0.53286 0.0897,-0.12622 0.10671,-0.0878 0.0583,0.13154 -0.0967,0.43855 0.17218,1.17788 0.34153,0.93921 0.091,-0.12824 0.10776,-0.0899 0.0584,0.13364 -0.0961,0.43512 0.0378,0.77511 0.2099,0.53286 0.0897,-0.12622 0.1067,-0.0878 0.0583,0.13154 -0.0967,0.43855 0.17217,1.17788 0.34152,0.93921 0.0913,-0.12863 0.1082,-0.0916 0.0594,0.12987 -0.0967,0.43855 0.17218,1.17788 0.34152,0.93921 0.091,-0.12824 0.10777,-0.0899 0.0584,0.13364 -0.0961,0.43512 0.0378,0.77511 0.20991,0.53286 0.0897,-0.12622 0.1067,-0.0878 0.0584,0.13154 -0.0967,0.43856 0.17217,1.17788 0.34152,0.93921 0.0908,-0.12791 0.1074,-0.0883 0.0576,0.13686 -0.0386,0.17424 0.0464,0.61245 0.18886,0.9738 0.14243,0.36136 0.25897,0.6878 0.25897,0.72542 0,0.0376 -0.9322,0.0504 -2.07155,0.0285 -1.28767,-0.0248 -2.09732,0.0106 -2.13964,0.0937 -0.0375,0.0735 -0.0421,-0.005 -0.0104,-0.17435 z m -4.19741,-11.30731 c 0,-0.0307 0.0357,-0.16605 0.0794,-0.30068 0.0676,-0.20829 0.056,-0.2149 -0.0776,-0.0443 -0.12891,0.16454 -0.14414,0.1404 -0.085,-0.13474 0.0396,-0.18436 0.0153,-0.4249 -0.054,-0.53454 -0.11155,-0.17644 -0.12724,-0.17631 -0.13655,0.001 -0.006,0.11025 -0.069,0.054 -0.1405,-0.12491 -0.0715,-0.17895 -0.0995,-0.40486 -0.0622,-0.50201 0.11084,-0.28884 -1.15024,-3.55653 -1.29451,-3.35431 -0.0839,0.11755 -0.10084,0.0718 -0.0532,-0.14345 0.0962,-0.43486 -1.51518,-4.77004 -1.68475,-4.53257 -0.0832,0.11645 -0.10053,0.0721 -0.0541,-0.13835 0.0967,-0.43855 -0.17218,-1.17788 -0.34152,-0.93921 -0.0913,0.12863 -0.1082,0.0916 -0.0594,-0.12987 0.0967,-0.43855 -0.17218,-1.17788 -0.34152,-0.93921 -0.0913,0.12863 -0.1082,0.0916 -0.0594,-0.12987 0.0967,-0.43855 -0.17218,-1.17787 -0.34153,-0.93921 -0.091,0.12824 -0.10776,0.0898 -0.0584,-0.13364 0.0802,-0.36328 -0.0244,-0.71787 -0.18295,-0.61988 -0.15079,0.0932 -0.43918,-0.82898 -0.31971,-1.02229 0.0636,-0.1029 0.0389,-0.12103 -0.0716,-0.0527 -0.12444,0.0769 -0.14767,0.0211 -0.0887,-0.21321 0.0439,-0.17458 0.0445,-0.23974 10e-4,-0.1448 -0.058,0.12737 -0.12496,0.13413 -0.25552,0.0258 -0.14032,-0.11645 -0.16093,-0.0856 -0.0996,0.14896 0.0579,0.22142 0.0333,0.26855 -0.098,0.18744 -0.11662,-0.0721 -0.14315,-0.0563 -0.0792,0.0471 0.13507,0.21854 -0.0436,0.71034 -0.2187,0.6021 -0.0871,-0.0538 -0.10604,-0.0269 -0.0477,0.0675 0.13714,0.22188 -0.17739,1.11024 -0.35435,1.00088 -0.0859,-0.0531 -0.10461,-0.0258 -0.0465,0.0682 0.11947,0.19331 -0.16893,1.11548 -0.31971,1.02229 -0.14119,-0.0873 -0.28203,0.28019 -0.19467,0.50785 0.0371,0.0967 0.009,0.32219 -0.0625,0.50114 -0.0715,0.17899 -0.13474,0.2352 -0.14052,0.12495 -0.009,-0.17818 -0.0248,-0.17818 -0.13905,0 -0.0707,0.11025 -0.0986,0.29697 -0.0619,0.41494 0.0366,0.11797 0.009,0.35852 -0.0614,0.53454 -0.0707,0.17676 -0.13364,0.2303 -0.14056,0.1196 -0.01,-0.15918 -0.0407,-0.15208 -0.14934,0.0345 -0.0752,0.12921 -0.10164,0.29182 -0.0587,0.36135 0.043,0.0695 0.0383,0.28525 -0.0104,0.47936 -0.0566,0.22544 -0.12412,0.29542 -0.18698,0.19372 -0.13377,-0.21644 -0.4155,0.60815 -0.30562,0.8945 0.0606,0.15797 0.0348,0.18827 -0.0931,0.10922 -0.11825,-0.0731 -0.14511,-0.0578 -0.0809,0.0461 0.12845,0.20784 -0.0395,0.71284 -0.20341,0.61155 -0.0786,-0.0486 -0.0968,0.0687 -0.0464,0.29874 0.0565,0.25772 0.0425,0.32122 -0.0439,0.19877 -0.0961,-0.13633 -0.16313,-0.076 -0.27648,0.24921 -0.0823,0.23602 -0.11841,0.4796 -0.0803,0.54127 0.0381,0.0617 0.0294,0.27096 -0.0193,0.46507 -0.0566,0.22544 -0.12413,0.29542 -0.18698,0.19372 -0.13902,-0.22494 -0.39796,0.57109 -0.31225,0.95992 0.0488,0.22148 0.0319,0.2585 -0.0594,0.12987 -0.16935,-0.23867 -0.43819,0.50066 -0.34153,0.93921 0.0488,0.22147 0.0319,0.2585 -0.0594,0.12987 -0.0969,-0.13661 -0.16367,-0.0766 -0.27726,0.24921 -0.0823,0.23602 -0.11841,0.4796 -0.0803,0.54127 0.0381,0.0617 0.0294,0.27096 -0.0193,0.46507 -0.0566,0.22544 -0.12412,0.29542 -0.18698,0.19372 -0.13901,-0.22494 -0.39796,0.57109 -0.31225,0.95992 0.0545,0.24726 0.0394,0.26933 -0.0749,0.10934 -0.15922,-0.22291 -0.19028,-0.13394 -0.0662,0.18952 0.0722,0.1881 0.69778,0.21138 5.67948,0.21138 3.07909,0 5.59836,-0.0252 5.59836,-0.0559 z"
       id="path18"
       inkscape:connector-curvature="0" />
  </g>
</svg>
