<?xml version="1.0" standalone="yes"?>
<svg width="792" height="428">
<path style="fill:#000000; stroke:none;" d="M0 0L0 342L398 342C392.717 328.379 388.564 312.117 376.985 302.329C371.433 297.635 364.762 296.076 358 293.975C349.237 291.251 340.591 288.164 332 284.95C303.39 274.247 272.594 256.529 256 230C266.118 231.362 275.593 235.412 286 233.535C309.908 229.225 327.696 207.615 335.771 186C339.06 177.196 340.071 167.939 342.721 159C345.041 151.172 348.768 143.809 351 136C340.043 136.227 330.237 140.98 322 148C329.64 129.649 343.184 110.121 362 102C357.068 100.231 350.007 102.696 345 103.884C328.801 107.729 315.287 114.691 303 126C314.669 107.325 335.366 95.8864 352 82.081C379.573 59.1977 406.268 33.7188 439 18.6913C447.796 14.6531 457.312 8.81262 467 7.32947C471.411 6.65411 474.845 9.53821 479 9.23071C485.931 8.71771 493.012 3.15097 500 1.66898C518.854 -2.32925 528.335 11.8115 540 24C535.85 22.6501 531.463 20.6499 527 21.2284C516.898 22.5378 508.903 32.2619 500 36.5139C492.837 39.9346 480.944 44.9305 487.995 54.6999C497.166 67.4077 515.894 61.7328 529 63.108C532.188 63.4426 535.017 64.9413 538 66C531.279 67.9867 524.66 66.7088 518 69.6659C509.442 73.4655 500.306 78.2437 493.285 84.5178C488.249 89.019 484.635 94.7936 478.996 98.6404C470.754 104.263 459.842 103.501 456.359 114C451.991 127.163 454.271 138.939 457.63 152C462.052 169.198 469.365 183.376 479.255 198C489.732 213.493 502.132 227.737 521 232.841C532.032 235.825 544.419 232.383 555 229C538.221 255.829 507.883 273.579 479 284.576C470.098 287.965 461.099 291.147 452 293.975C445.238 296.076 438.567 297.635 433.015 302.329C421.436 312.117 417.283 328.379 412 342L792 342L792 0L0 0z"/>
<path style="fill:#d9d9d9; stroke:none;" d="M500 1L501 2L500 1z"/>
<path style="fill:#009688; stroke:none;" d="M305 123C311.086 120.292 316.124 115.52 322 112.312C333.972 105.776 349.323 101.282 363 101C345.823 111.132 327.854 126.574 323 147C331.68 141.648 341.254 134.889 352 136C344.297 149.201 342.556 163.647 338.279 178C332.296 198.08 320.897 216.925 302 227.208C296.779 230.048 290.93 232.825 285 233.699C274.933 235.183 265.779 231.317 256 230C269.781 253.954 297.318 270.25 322 280.85C330.075 284.318 338.42 288.014 347 290C359.071 262.768 367.572 233.149 377.344 205C382.489 190.181 390.705 174.541 393 159C398.607 159 409.799 156.851 414.581 160.028C416.828 161.521 417.524 164.631 418.424 167C420.683 172.947 422.56 179.01 424.692 185C432.864 207.961 441.279 230.883 449 254C452.011 263.015 455.091 272.099 458.424 281C459.371 283.528 460.32 288.296 463.278 289.212C467.747 290.597 475.863 285.797 480 284.189C495.461 278.181 510.597 270.674 524 260.845C534.956 252.81 547.737 242.27 554 230C542.443 231.556 531.728 236.288 520 232.48C501.416 226.447 490.247 213.409 479.431 198C469.078 183.252 461.545 168.592 457.127 151C453.728 137.469 451.025 124.307 457.108 111.019C459.634 105.499 464.933 105.204 470 103.135C475.895 100.728 480.503 97.5558 484.961 93C499.64 77.9966 515.495 67 537 67C530.622 61.741 523.57 63.2511 515.961 63.8549C506.335 64.6188 495.173 63.3988 488.419 55.6999C480.708 46.91 490.385 40.3469 498 37.3048C507.745 33.4116 515.668 23.5905 526 21.3974C530.078 20.5317 534.072 22.1022 538 23C531.12 8.15817 515.172 -1.97168 499 1.89893C492.53 3.4473 484.509 9.38239 478 9.11496C474.499 8.9711 471.672 6.86792 468 7.19986C458.359 8.07141 448.675 14.2726 440 18.1389C433.374 21.0918 426.241 23.7747 420 27.4753C411.416 32.565 403.772 39.5826 396 45.8002C380.535 58.1729 365.466 71.0276 350 83.3997C334.974 95.4203 315.361 106.436 305 123z"/>
<path style="fill:#868686; stroke:none;" d="M496 2L497 3L496 2z"/>
<path style="fill:#8d8d8d; stroke:none;" d="M517 2L518 3L517 2z"/>
<path style="fill:#c5c5c5; stroke:none;" d="M493 3L494 4L493 3z"/>
<path style="fill:#7c7c7c; stroke:none;" d="M490 4L491 5L490 4z"/>
<path style="fill:#737373; stroke:none;" d="M520 4L521 5L520 4z"/>
<path style="fill:#e7e7e7; stroke:none;" d="M488 5L489 6L488 5z"/>
<path style="fill:#f7f7f7; stroke:none;" d="M521 5L522 6L521 5z"/>
<path style="fill:#343434; stroke:none;" d="M523 6L524 7L523 6z"/>
<path style="fill:#6e6e6e; stroke:none;" d="M465 7L466 8L465 7z"/>
<path style="fill:#c5c5c5; stroke:none;" d="M473 7L474 8L473 7z"/>
<path style="fill:#434343; stroke:none;" d="M483 7L484 8L483 7z"/>
<path style="fill:#a3a3a3; stroke:none;" d="M524 7L525 8L524 7z"/>
<path style="fill:#b8b8b8; stroke:none;" d="M462 8L463 9L462 8z"/>
<path style="fill:#6c6c6c; stroke:none;" d="M475 8L476 9L475 8z"/>
<path style="fill:#404040; stroke:none;" d="M481 8L482 9L481 8z"/>
<path style="fill:#f7f7f7; stroke:none;" d="M525 8L526 9L525 8z"/>
<path style="fill:#8d8d8d; stroke:none;" d="M459 9L460 10L459 9z"/>
<path style="fill:#d3d3d3; stroke:none;" d="M476 9L477 10L476 9z"/>
<path style="fill:#f7f7f7; stroke:none;" d="M457 10L458 11L457 10z"/>
<path style="fill:#6c6c6c; stroke:none;" d="M454 11L455 12L454 11z"/>
<path style="fill:#cbcbcb; stroke:none;" d="M452 12L453 13L452 12z"/>
<path style="fill:#363636; stroke:none;" d="M447 14L448 15L447 14z"/>
<path style="fill:#737373; stroke:none;" d="M445 15L446 16L445 15z"/>
<path style="fill:#e7e7e7; stroke:none;" d="M532 15L533 16L532 15z"/>
<path style="fill:#b2b2b2; stroke:none;" d="M443 16L444 17L443 16z"/>
<path style="fill:#a3a3a3; stroke:none;" d="M533 16L534 17L533 16z"/>
<path style="fill:#e1e1e1; stroke:none;" d="M441 17L442 18L441 17z"/>
<path style="fill:#606060; stroke:none;" d="M534 17L535 18L534 17z"/>
<path style="fill:#f7f7f7; stroke:none;" d="M439 18L440 19L439 18z"/>
<path style="fill:#4f4f4f; stroke:none;" d="M434 20L435 21L434 20z"/>
<path style="fill:#7c7c7c; stroke:none;" d="M432 21L433 22L432 21z"/>
<path style="fill:#969696; stroke:none;" d="M524 21L525 22L524 21M532 21L533 22L532 21z"/>
<path style="fill:#afafaf; stroke:none;" d="M430 22L431 23L430 22z"/>
<path style="fill:#575757; stroke:none;" d="M522 22L523 23L522 22z"/>
<path style="fill:#969696; stroke:none;" d="M535 22L536 23L535 22z"/>
<path style="fill:#e7e7e7; stroke:none;" d="M538 22L539 23L538 22z"/>
<path style="fill:#d9d9d9; stroke:none;" d="M428 23L429 24L428 23z"/>
<path style="fill:#7c7c7c; stroke:none;" d="M520 23L521 24L520 23z"/>
<path style="fill:#969696; stroke:none;" d="M538 23L539 24L538 23z"/>
<path style="fill:#d3d3d3; stroke:none;" d="M539 23L540 24L539 23z"/>
<path style="fill:#f7f7f7; stroke:none;" d="M426 24L427 25L426 24z"/>
<path style="fill:#323232; stroke:none;" d="M519 24L520 25L519 24z"/>
<path style="fill:#4b4b4b; stroke:none;" d="M421 26L422 27L421 26z"/>
<path style="fill:#818181; stroke:none;" d="M515 26L516 27L515 26z"/>
<path style="fill:#868686; stroke:none;" d="M418 28L419 29L418 28z"/>
<path style="fill:#b8b8b8; stroke:none;" d="M512 28L513 29L512 28z"/>
<path style="fill:#000000; stroke:none;" d="M445 38C447.984 39.5124 450.701 41.8496 454.015 42.6065C463.273 44.7214 469.528 37.7198 470 29C462.302 29.0009 447.774 29.1349 445 38z"/>
<path style="fill:#434343; stroke:none;" d="M511 29L512 30L511 29z"/>
<path style="fill:#404040; stroke:none;" d="M415 30L416 31L415 30z"/>
<path style="fill:#afafaf; stroke:none;" d="M509 30L510 31L509 30z"/>
<path style="fill:#cbcbcb; stroke:none;" d="M414 31L415 32L414 31z"/>
<path style="fill:#ff0000; stroke:none;" d="M448 36L448 38C456.058 42.0501 466.15 42.274 467 31C460.144 31.0567 454.094 32.891 448 36z"/>
<path style="fill:#969696; stroke:none;" d="M508 31L509 32L508 31z"/>
<path style="fill:#686868; stroke:none;" d="M507 32L508 33L507 32z"/>
<path style="fill:#414141; stroke:none;" d="M411 33L412 34L411 33z"/>
<path style="fill:#575757; stroke:none;" d="M505 33L506 34L505 33z"/>
<path style="fill:#afafaf; stroke:none;" d="M410 34L411 35L410 34z"/>
<path style="fill:#d3d3d3; stroke:none;" d="M503 34L504 35L503 34z"/>
<path style="fill:#686868; stroke:none;" d="M502 35L503 36L502 35z"/>
<path style="fill:#969696; stroke:none;" d="M500 36L501 37L500 36z"/>
<path style="fill:#818181; stroke:none;" d="M406 37L407 38L406 37z"/>
<path style="fill:#969696; stroke:none;" d="M497 37L498 38L497 37z"/>
<path style="fill:#e1e1e1; stroke:none;" d="M405 38L406 39L405 38z"/>
<path style="fill:#d3d3d3; stroke:none;" d="M494 38L495 39L494 38z"/>
<path style="fill:#505050; stroke:none;" d="M495 38L496 39L495 38z"/>
<path style="fill:#d3d3d3; stroke:none;" d="M492 39L493 40L492 39z"/>
<path style="fill:#373737; stroke:none;" d="M493 39L494 40L493 39z"/>
<path style="fill:#323232; stroke:none;" d="M402 40L403 41L402 40z"/>
<path style="fill:#d3d3d3; stroke:none;" d="M490 40L491 41L490 40z"/>
<path style="fill:#888888; stroke:none;" d="M401 41L402 42L401 41z"/>
<path style="fill:#505050; stroke:none;" d="M489 41L490 42L489 41z"/>
<path style="fill:#e7e7e7; stroke:none;" d="M400 42L401 43L400 42z"/>
<path style="fill:#d3d3d3; stroke:none;" d="M487 42L488 43L487 42z"/>
<path style="fill:#2e2e2e; stroke:none;" d="M488 42L489 43L488 42z"/>
<path style="fill:#505050; stroke:none;" d="M487 43L488 44L487 43z"/>
<path style="fill:#3a3a3a; stroke:none;" d="M397 44L398 45L397 44z"/>
<path style="fill:#989898; stroke:none;" d="M396 45L397 46L396 45z"/>
<path style="fill:#505050; stroke:none;" d="M486 45L487 46L486 45z"/>
<path style="fill:#efefef; stroke:none;" d="M395 46L396 47L395 46z"/>
<path style="fill:#575757; stroke:none;" d="M485 46L486 47L485 46z"/>
<path style="fill:#3a3a3a; stroke:none;" d="M392 48L393 49L392 48z"/>
<path style="fill:#888888; stroke:none;" d="M391 49L392 50L391 49M485 49L486 50L485 49z"/>
<path style="fill:#e1e1e1; stroke:none;" d="M390 50L391 51L390 50z"/>
<path style="fill:#ebebeb; stroke:none;" d="M485 50L486 51L485 50z"/>
<path style="fill:#505050; stroke:none;" d="M486 52L487 53L486 52z"/>
<path style="fill:#5a5a5a; stroke:none;" d="M386 53L387 54L386 53z"/>
<path style="fill:#e1e1e1; stroke:none;" d="M486 53L487 54L486 53z"/>
<path style="fill:#afafaf; stroke:none;" d="M385 54L386 55L385 54z"/>
<path style="fill:#404040; stroke:none;" d="M487 54L488 55L487 54z"/>
<path style="fill:#f7f7f7; stroke:none;" d="M384 55L385 56L384 55z"/>
<path style="fill:#f3f3f3; stroke:none;" d="M487 55L488 56L487 55z"/>
<path style="fill:#f7f7f7; stroke:none;" d="M488 56L489 57L488 56z"/>
<path style="fill:#797979; stroke:none;" d="M489 56L490 57L489 56z"/>
<path style="fill:#2d2d2d; stroke:none;" d="M381 57L382 58L381 57z"/>
<path style="fill:#a9a9a9; stroke:none;" d="M490 57L491 58L490 57z"/>
<path style="fill:#737373; stroke:none;" d="M380 58L381 59L380 58z"/>
<path style="fill:#c5c5c5; stroke:none;" d="M491 58L492 59L491 58z"/>
<path style="fill:#cbcbcb; stroke:none;" d="M379 59L380 60L379 59z"/>
<path style="fill:#fbfbfb; stroke:none;" d="M492 59L493 60L492 59z"/>
<path style="fill:#676767; stroke:none;" d="M493 59L494 60L493 59z"/>
<path style="fill:#d5d5d5; stroke:none;" d="M494 60L495 61L494 60z"/>
<path style="fill:#fbfbfb; stroke:none;" d="M495 61L496 62L495 61z"/>
<path style="fill:#b5b5b5; stroke:none;" d="M496 61L497 62L496 61z"/>
<path style="fill:#404040; stroke:none;" d="M375 62L376 63L375 62z"/>
<path style="fill:#e4e4e4; stroke:none;" d="M498 62L499 63L498 62z"/>
<path style="fill:#7c7c7c; stroke:none;" d="M499 62C500.248 62.6848 500.548 62.7488 502 63C500.752 62.3152 500.452 62.2512 499 62z"/>
<path style="fill:#8d8d8d; stroke:none;" d="M374 63L375 64L374 63z"/>
<path style="fill:#ebebeb; stroke:none;" d="M504 63C505.506 63.683 506.315 63.8259 508 64C506.494 63.317 505.685 63.1741 504 63z"/>
<path style="fill:#8d8d8d; stroke:none;" d="M508 63C509.506 63.683 510.315 63.8259 512 64C510.494 63.3169 509.685 63.1741 508 63z"/>
<path style="fill:#ababab; stroke:none;" d="M512 63C513.248 63.6848 513.548 63.7488 515 64C513.752 63.3152 513.452 63.2512 512 63z"/>
<path style="fill:#424242; stroke:none;" d="M515.667 63.3333C515.222 63.7776 516.278 63.7224 516.333 63.6667C516.778 63.2221 515.722 63.2779 515.667 63.3333z"/>
<path style="fill:#989898; stroke:none;" d="M517 63L518 64L517 63z"/>
<path style="fill:#e7e7e7; stroke:none;" d="M518 63L519 64L518 63z"/>
<path style="fill:#fbfbfb; stroke:none;" d="M520 63L521 64L520 63z"/>
<path style="fill:#cfcfcf; stroke:none;" d="M531 63L532 64L531 63z"/>
<path style="fill:#2d2d2d; stroke:none;" d="M532 63L533 64L532 63z"/>
<path style="fill:#e1e1e1; stroke:none;" d="M373 64L374 65L373 64z"/>
<path style="fill:#cfcfcf; stroke:none;" d="M533 64L534 65L533 64z"/>
<path style="fill:#505050; stroke:none;" d="M534 64L535 65L534 64z"/>
<path style="fill:#cfcfcf; stroke:none;" d="M535 65L536 66L535 65z"/>
<path style="fill:#969696; stroke:none;" d="M537 66L538 67L537 66z"/>
<path style="fill:#4f4f4f; stroke:none;" d="M369 67L370 68L369 67z"/>
<path style="fill:#969696; stroke:none;" d="M523 67L524 68L523 67z"/>
<path style="fill:#a9a9a9; stroke:none;" d="M368 68L369 69L368 68z"/>
<path style="fill:#969696; stroke:none;" d="M520 68L521 69L520 68z"/>
<path style="fill:#e7e7e7; stroke:none;" d="M367 69L368 70L367 69z"/>
<path style="fill:#d3d3d3; stroke:none;" d="M517 69L518 70L517 69z"/>
<path style="fill:#373737; stroke:none;" d="M518 69L519 70L518 69z"/>
<path style="fill:#e7e7e7; stroke:none;" d="M514 70L515 71L514 70z"/>
<path style="fill:#787878; stroke:none;" d="M515 70L516 71L515 70z"/>
<path style="fill:#a9a9a9; stroke:none;" d="M514 71L515 72L514 71z"/>
<path style="fill:#606060; stroke:none;" d="M363 72L364 73L363 72z"/>
<path style="fill:#969696; stroke:none;" d="M512 72L513 73L512 72z"/>
<path style="fill:#b8b8b8; stroke:none;" d="M362 73L363 74L362 73z"/>
<path style="fill:#d3d3d3; stroke:none;" d="M509 73L510 74L509 73z"/>
<path style="fill:#505050; stroke:none;" d="M510 73L511 74L510 73z"/>
<path style="fill:#f7f7f7; stroke:none;" d="M361 74L362 75L361 74z"/>
<path style="fill:#969696; stroke:none;" d="M507 74L508 75L507 74z"/>
<path style="fill:#505050; stroke:none;" d="M506 75L507 76L506 75z"/>
<path style="fill:#434343; stroke:none;" d="M358 76L359 77L358 76z"/>
<path style="fill:#7c7c7c; stroke:none;" d="M504 76L505 77L504 76z"/>
<path style="fill:#9d9d9d; stroke:none;" d="M357 77L358 78L357 77z"/>
<path style="fill:#d3d3d3; stroke:none;" d="M502 77L503 78L502 77z"/>
<path style="fill:#373737; stroke:none;" d="M503 77L504 78L503 77z"/>
<path style="fill:#e7e7e7; stroke:none;" d="M356 78L357 79L356 78z"/>
<path style="fill:#969696; stroke:none;" d="M501 78L502 79L501 78z"/>
<path style="fill:#d3d3d3; stroke:none;" d="M499 79L500 80L499 79z"/>
<path style="fill:#373737; stroke:none;" d="M500 79L501 80L500 79z"/>
<path style="fill:#2d2d2d; stroke:none;" d="M353 80L354 81L353 80z"/>
<path style="fill:#969696; stroke:none;" d="M498 80L499 81L498 80z"/>
<path style="fill:#7c7c7c; stroke:none;" d="M352 81L353 82L352 81z"/>
<path style="fill:#d3d3d3; stroke:none;" d="M496 81L497 82L496 81z"/>
<path style="fill:#373737; stroke:none;" d="M497 81L498 82L497 81z"/>
<path style="fill:#d9d9d9; stroke:none;" d="M351 82L352 83L351 82z"/>
<path style="fill:#969696; stroke:none;" d="M495 82L496 83L495 82z"/>
<path style="fill:#686868; stroke:none;" d="M494 83L495 84L494 83z"/>
<path style="fill:#a6a6a6; stroke:none;" d="M492 84L493 85L492 84z"/>
<path style="fill:#5e5e5e; stroke:none;" d="M347 85L348 86L347 85z"/>
<path style="fill:#c5c5c5; stroke:none;" d="M346 86L347 87L346 86z"/>
<path style="fill:#434343; stroke:none;" d="M491 86L492 87L491 86z"/>
<path style="fill:#fbfbfb; stroke:none;" d="M489 87L490 88L489 87z"/>
<path style="fill:#8a8a8a; stroke:none;" d="M490 87L491 88L490 87z"/>
<path style="fill:#969696; stroke:none;" d="M489 88L490 89L489 88z"/>
<path style="fill:#656565; stroke:none;" d="M342 89L343 90L342 89z"/>
<path style="fill:#a0a0a0; stroke:none;" d="M488 89L489 90L488 89z"/>
<path style="fill:#c5c5c5; stroke:none;" d="M341 90L342 91L341 90z"/>
<path style="fill:#bebebe; stroke:none;" d="M487 90L488 91L487 90z"/>
<path style="fill:#e7e7e7; stroke:none;" d="M486 91L487 92L486 91z"/>
<path style="fill:#f3f3f3; stroke:none;" d="M485 92L486 93L485 92z"/>
<path style="fill:#888888; stroke:none;" d="M337 93L338 94L337 93z"/>
<path style="fill:#f7f7f7; stroke:none;" d="M484 93L485 94L484 93M336 94L337 95L336 94z"/>
<path style="fill:#f3f3f3; stroke:none;" d="M483 94L484 95L483 94z"/>
<path style="fill:#323232; stroke:none;" d="M484 94L485 95L484 94z"/>
<path style="fill:#fbfbfb; stroke:none;" d="M482 95L481 97C482.263 96.0287 482.392 96.3062 482 95z"/>
<path style="fill:#656565; stroke:none;" d="M483 95L484 96L483 95z"/>
<path style="fill:#6c6c6c; stroke:none;" d="M333 96L334 97L333 96z"/>
<path style="fill:#343434; stroke:none;" d="M482 96L483 97L482 96z"/>
<path style="fill:#e1e1e1; stroke:none;" d="M332 97L333 98L332 97z"/>
<path style="fill:#e4e4e4; stroke:none;" d="M480 97L481 98L480 97z"/>
<path style="fill:#686868; stroke:none;" d="M479 98L480 99L479 98z"/>
<path style="fill:#737373; stroke:none;" d="M329 99L330 100L329 99z"/>
<path style="fill:#d9d9d9; stroke:none;" d="M477 99L478 100L477 99z"/>
<path style="fill:#f7f7f7; stroke:none;" d="M328 100L329 101L328 100z"/>
<path style="fill:#2e2e2e; stroke:none;" d="M476 100L477 101L476 100z"/>
<path style="fill:#efefef; stroke:none;" d="M356 101L357 102L356 101z"/>
<path style="fill:#4f4f4f; stroke:none;" d="M357 101L358 102L357 101z"/>
<path style="fill:#929292; stroke:none;" d="M362 101L363 102L362 101z"/>
<path style="fill:#ebebeb; stroke:none;" d="M473 101L474 102L473 101z"/>
<path style="fill:#686868; stroke:none;" d="M474 101L475 102L474 101z"/>
<path style="fill:#818181; stroke:none;" d="M325 102L326 103L325 102z"/>
<path style="fill:#606060; stroke:none;" d="M351 102L352 103L351 102z"/>
<path style="fill:#a3a3a3; stroke:none;" d="M360 102L361 103L360 102z"/>
<path style="fill:#e7e7e7; stroke:none;" d="M471 102L472 103L471 102z"/>
<path style="fill:#818181; stroke:none;" d="M472 102L473 103L472 102z"/>
<path style="fill:#efefef; stroke:none;" d="M324 103L325 104L324 103z"/>
<path style="fill:#cbcbcb; stroke:none;" d="M346 103L347 104L346 103z"/>
<path style="fill:#bebebe; stroke:none;" d="M358 103L359 104L358 103z"/>
<path style="fill:#b2b2b2; stroke:none;" d="M469 103L470 104L469 103z"/>
<path style="fill:#5e5e5e; stroke:none;" d="M342 104L343 105L342 104z"/>
<path style="fill:#414141; stroke:none;" d="M356 104L357 105L356 104z"/>
<path style="fill:#676767; stroke:none;" d="M466 104L467 105L466 104z"/>
<path style="fill:#323232; stroke:none;" d="M321 105L322 106L321 105z"/>
<path style="fill:#868686; stroke:none;" d="M338 105L339 106L338 105z"/>
<path style="fill:#f7f7f7; stroke:none;" d="M355 105L356 106L355 105z"/>
<path style="fill:#b2b2b2; stroke:none;" d="M462 105L463 106L462 105z"/>
<path style="fill:#868686; stroke:none;" d="M320 106L321 107L320 106z"/>
<path style="fill:#414141; stroke:none;" d="M335 106L336 107L335 106M353 106L354 107L353 106z"/>
<path style="fill:#656565; stroke:none;" d="M459 106L460 107L459 106z"/>
<path style="fill:#d9d9d9; stroke:none;" d="M319 107L320 108L319 107z"/>
<path style="fill:#afafaf; stroke:none;" d="M332 107L333 108L332 107z"/>
<path style="fill:#b8b8b8; stroke:none;" d="M352 107L353 108L352 107z"/>
<path style="fill:#d3d3d3; stroke:none;" d="M458 107L459 108L458 107z"/>
<path style="fill:#363636; stroke:none;" d="M458 108L459 109L458 108z"/>
<path style="fill:#868686; stroke:none;" d="M327 109L328 110L327 109z"/>
<path style="fill:#414141; stroke:none;" d="M349 109L350 110L349 109z"/>
<path style="fill:#d3d3d3; stroke:none;" d="M457.333 109.667C457.278 109.722 457.222 110.778 457.667 110.333C457.722 110.278 457.778 109.222 457.333 109.667z"/>
<path style="fill:#c5c5c5; stroke:none;" d="M348 110L349 111L348 110z"/>
<path style="fill:#3a3a3a; stroke:none;" d="M314 111L315 112L314 111M313 112L314 113L313 112z"/>
<path style="fill:#e7e7e7; stroke:none;" d="M456 112L457 113L456 112z"/>
<path style="fill:#3a3a3a; stroke:none;" d="M312 113L313 114L312 113z"/>
<path style="fill:#868686; stroke:none;" d="M319 113L320 114L319 113z"/>
<path style="fill:#494949; stroke:none;" d="M456 113L457 114L456 113z"/>
<path style="fill:#3a3a3a; stroke:none;" d="M311 114L312 115L311 114M310 115L311 116L310 115z"/>
<path style="fill:#787878; stroke:none;" d="M316 115L317 116L316 115z"/>
<path style="fill:#f3f3f3; stroke:none;" d="M455 115L456 116L455 115z"/>
<path style="fill:#787878; stroke:none;" d="M455 116L456 117L455 116z"/>
<path style="fill:#6c6c6c; stroke:none;" d="M313 117L314 118L313 117z"/>
<path style="fill:#d5d5d5; stroke:none;" d="M454.333 118.667C454.278 118.722 454.222 119.778 454.667 119.333C454.722 119.278 454.778 118.222 454.333 118.667z"/>
<path style="fill:#f7f7f7; stroke:none;" d="M307 119L308 120L307 119z"/>
<path style="fill:#cbcbcb; stroke:none;" d="M310 119L311 120L310 119z"/>
<path style="fill:#929292; stroke:none;" d="M306 120L307 121L306 120z"/>
<path style="fill:#6e6e6e; stroke:none;" d="M309 120L310 121L309 120z"/>
<path style="fill:#e7e7e7; stroke:none;" d="M338 120L339 121L338 120z"/>
<path style="fill:#929292; stroke:none;" d="M454 120L455 121L454 120z"/>
<path style="fill:#2d2d2d; stroke:none;" d="M308 121L309 122L308 121z"/>
<path style="fill:#989898; stroke:none;" d="M337 121L338 122L337 121z"/>
<path style="fill:#575757; stroke:none;" d="M454 121L455 122L454 121z"/>
<path style="fill:#3d3d3d; stroke:none;" d="M336 122L337 123L336 122z"/>
<path style="fill:#f7f7f7; stroke:none;" d="M304 123L304 125C305.635 124.455 305.455 124.635 306 123L304 123z"/>
<path style="fill:#606060; stroke:none;" d="M303 124L304 125L303 124z"/>
<path style="fill:#e1e1e1; stroke:none;" d="M453.333 124.667C453.278 124.722 453.222 125.778 453.667 125.333C453.722 125.278 453.778 124.222 453.333 124.667z"/>
<path style="fill:#b2b2b2; stroke:none;" d="M303 125L304 126L303 125z"/>
<path style="fill:#afafaf; stroke:none;" d="M334 125L335 126L334 125z"/>
<path style="fill:#818181; stroke:none;" d="M302 126L303 127L302 126z"/>
<path style="fill:#868686; stroke:none;" d="M453.333 126.667C453.278 126.722 453.222 127.778 453.667 127.333C453.722 127.278 453.778 126.222 453.333 126.667z"/>
<path style="fill:#f7f7f7; stroke:none;" d="M332 128L333 129L332 128z"/>
<path style="fill:#4d4d4d; stroke:none;" d="M453 128L454 129L453 128z"/>
<path style="fill:#737373; stroke:none;" d="M331 129L332 130L331 129z"/>
<path style="fill:#f7f7f7; stroke:none;" d="M330 131L331 132L330 131z"/>
<path style="fill:#404040; stroke:none;" d="M329 132L330 133L329 132z"/>
<path style="fill:#363636; stroke:none;" d="M453 133L454 134L453 133z"/>
<path style="fill:#888888; stroke:none;" d="M328 134L329 135L328 134z"/>
<path style="fill:#c1c1c1; stroke:none;" d="M453 134L454 135L453 134z"/>
<path style="fill:#f7f7f7; stroke:none;" d="M348 135L349 136L348 135z"/>
<path style="fill:#8d8d8d; stroke:none;" d="M349.667 135.333C349.222 135.778 350.278 135.722 350.333 135.667C350.778 135.222 349.722 135.278 349.667 135.333z"/>
<path style="fill:#e1e1e1; stroke:none;" d="M327 136L328 137L327 136z"/>
<path style="fill:#4f4f4f; stroke:none;" d="M344 136L345 137L344 136z"/>
<path style="fill:#cbcbcb; stroke:none;" d="M351 136L352 137L351 136z"/>
<path style="fill:#b8b8b8; stroke:none;" d="M340 137L341 138L340 137z"/>
<path style="fill:#363636; stroke:none;" d="M454 137L455 138L454 137z"/>
<path style="fill:#484848; stroke:none;" d="M350 138L351 139L350 138z"/>
<path style="fill:#cfcfcf; stroke:none;" d="M454 138L455 139L454 138z"/>
<path style="fill:#989898; stroke:none;" d="M335 139L336 140L335 139z"/>
<path style="fill:#686868; stroke:none;" d="M349 140L350 141L349 140z"/>
<path style="fill:#545454; stroke:none;" d="M329 142L330 143L329 142M348 142L349 143L348 142z"/>
<path style="fill:#505050; stroke:none;" d="M455 143L456 144L455 143z"/>
<path style="fill:#e1e1e1; stroke:none;" d="M323 144L324 145L323 144z"/>
<path style="fill:#787878; stroke:none;" d="M326 144L327 145L326 144z"/>
<path style="fill:#d3d3d3; stroke:none;" d="M455 144L456 145L455 144z"/>
<path style="fill:#888888; stroke:none;" d="M322 146L323 147L322 146z"/>
<path style="fill:#ffffff; stroke:none;" d="M322 147L323 148L322 147z"/>
<path style="fill:#929292; stroke:none;" d="M346 147L347 148L346 147z"/>
<path style="fill:#505050; stroke:none;" d="M456 147L457 148L456 147z"/>
<path style="fill:#d3d3d3; stroke:none;" d="M456 148L457 149L456 148z"/>
<path style="fill:#737373; stroke:none;" d="M321 149L322 150L321 149z"/>
<path style="fill:#cbcbcb; stroke:none;" d="M345 150L346 151L345 150z"/>
<path style="fill:#505050; stroke:none;" d="M457 151L458 152L457 151z"/>
<path style="fill:#d3d3d3; stroke:none;" d="M457 152L458 153L457 152z"/>
<path style="fill:#d9d9d9; stroke:none;" d="M344 153L345 154L344 153z"/>
<path style="fill:#505050; stroke:none;" d="M458 155L459 156L458 155z"/>
<path style="fill:#989898; stroke:none;" d="M343 156L344 157L343 156z"/>
<path style="fill:#d3d3d3; stroke:none;" d="M458 156L459 157L458 156z"/>
<path style="fill:#505050; stroke:none;" d="M459 158L460 159L459 158z"/>
<path style="fill:#363636; stroke:none;" d="M342 159L343 160L342 159z"/>
<path style="fill:#295c55; stroke:none;" d="M393 159L394 160L393 159z"/>
<path style="fill:#e4e4e4; stroke:none;" d="M348 290C352.259 290 360.751 291.632 364.298 288.972C366.949 286.984 367.692 281.946 368.808 279C372.178 270.101 376.387 260.371 378 251L414 251C418.058 251 425.05 249.682 428.581 252.028C431.323 253.85 431.998 258.117 433.053 261C435.48 267.635 437.762 274.298 440 281C440.834 283.499 441.464 287.293 443.702 288.972C447.407 291.75 456.538 290 461 290C458.409 278.804 453.545 267.827 449.692 257C441.879 235.048 434.297 213.012 426.656 191C423.881 183.005 421.208 174.906 418.192 167C417.081 164.086 416.238 160.289 412.867 159.318C409.117 158.238 397.92 157.615 394.702 160.028C392.45 161.717 391.859 165.507 390.947 168C388.753 173.994 386.659 180.022 384.424 186C375.764 209.164 367.766 232.638 359.656 256C355.751 267.249 350.688 278.381 348 290z"/>
<path style="fill:#a18685; stroke:none;" d="M415 159L416 160L415 159z"/>
<path style="fill:#d3d3d3; stroke:none;" d="M459 159L460 160L459 159z"/>
<path style="fill:#8f7877; stroke:none;" d="M393 160L394 161L393 160z"/>
<path style="fill:#475b57; stroke:none;" d="M416 161L417 162L416 161z"/>
<path style="fill:#3a5b56; stroke:none;" d="M392 162L393 163L392 162z"/>
<path style="fill:#b09595; stroke:none;" d="M416 162L417 163L416 162z"/>
<path style="fill:#969696; stroke:none;" d="M460 162L461 163L460 162z"/>
<path style="fill:#575757; stroke:none;" d="M341 163L342 164L341 163z"/>
<path style="fill:#a38988; stroke:none;" d="M392 163L393 164L392 163z"/>
<path style="fill:#575e5b; stroke:none;" d="M417 164L418 165L417 164z"/>
<path style="fill:#4c5c57; stroke:none;" d="M391 165L392 166L391 165z"/>
<path style="fill:#bea6a5; stroke:none;" d="M417 165L418 166L417 165z"/>
<path style="fill:#969696; stroke:none;" d="M461 165L462 166L461 165z"/>
<path style="fill:#b69b9b; stroke:none;" d="M391 166L392 167L391 166z"/>
<path style="fill:#676360; stroke:none;" d="M418 167L419 168L418 167z"/>
<path style="fill:#505050; stroke:none;" d="M462 167L463 168L462 167z"/>
<path style="fill:#5f605d; stroke:none;" d="M390 168L391 169L390 168z"/>
<path style="fill:#d3d3d3; stroke:none;" d="M462 168L463 169L462 168z"/>
<path style="fill:#afafaf; stroke:none;" d="M340 169L341 170L340 169z"/>
<path style="fill:#c6b0b0; stroke:none;" d="M390 169L391 170L390 169z"/>
<path style="fill:#1a635b; stroke:none;" d="M419 169L420 170L419 169z"/>
<path style="fill:#776a68; stroke:none;" d="M419 170L420 171L419 170z"/>
<path style="fill:#969696; stroke:none;" d="M463 170L464 171L463 170z"/>
<path style="fill:#736966; stroke:none;" d="M389 171L390 172L389 171z"/>
<path style="fill:#255e57; stroke:none;" d="M420 172L421 173L420 172z"/>
<path style="fill:#505050; stroke:none;" d="M464 172L465 173L464 172z"/>
<path style="fill:#5a5a5a; stroke:none;" d="M339 173L340 174L339 173z"/>
<path style="fill:#245e57; stroke:none;" d="M388 173L389 174L388 173z"/>
<path style="fill:#887472; stroke:none;" d="M420 173L421 174L420 173z"/>
<path style="fill:#d3d3d3; stroke:none;" d="M464 173L465 174L464 173z"/>
<path style="fill:#887472; stroke:none;" d="M388 174L389 175L388 174z"/>
<path style="fill:#325b55; stroke:none;" d="M421 175L422 176L421 175z"/>
<path style="fill:#969696; stroke:none;" d="M465 175L466 176L465 175z"/>
<path style="fill:#345a55; stroke:none;" d="M387 176L388 177L387 176z"/>
<path style="fill:#977f7e; stroke:none;" d="M421 176L422 177L421 176z"/>
<path style="fill:#bebebe; stroke:none;" d="M338 177L339 178L338 177z"/>
<path style="fill:#9c8382; stroke:none;" d="M387 177L388 178L387 177z"/>
<path style="fill:#ab908f; stroke:none;" d="M404 177L405 178L404 177z"/>
<path style="fill:#969696; stroke:none;" d="M466 177L467 178L466 177z"/>
<path style="fill:#009688; stroke:none;" d="M404 178C399.295 197.854 390.346 217.957 383 237L424 237C422.208 224.864 416.543 212.63 412.667 201C410.162 193.486 408.404 184.633 404 178z"/>
<path style="fill:#3f5b56; stroke:none;" d="M422 178L423 179L422 178z"/>
<path style="fill:#455a56; stroke:none;" d="M386 179L387 180L386 179z"/>
<path style="fill:#ab9190; stroke:none;" d="M403 179L404 180L403 179z"/>
<path style="fill:#7b6c6a; stroke:none;" d="M405 179L406 180L405 179z"/>
<path style="fill:#a78d8c; stroke:none;" d="M422 179L423 180L422 179z"/>
<path style="fill:#969696; stroke:none;" d="M467 179L468 180L467 179z"/>
<path style="fill:#4b4b4b; stroke:none;" d="M337 180L338 181L337 180z"/>
<path style="fill:#af9594; stroke:none;" d="M386 180L387 181L386 180z"/>
<path style="fill:#405b56; stroke:none;" d="M403 180L404 181L403 180z"/>
<path style="fill:#206059; stroke:none;" d="M405 180L406 181L405 180z"/>
<path style="fill:#4f5d58; stroke:none;" d="M423 181L424 182L423 181z"/>
<path style="fill:#969696; stroke:none;" d="M468 181L469 182L468 181z"/>
<path style="fill:#595e5b; stroke:none;" d="M385 182L386 183L385 182z"/>
<path style="fill:#947c7b; stroke:none;" d="M402 182L403 183L402 182z"/>
<path style="fill:#796b69; stroke:none;" d="M406 182L407 183L406 182z"/>
<path style="fill:#b79d9d; stroke:none;" d="M423 182L424 183L423 182z"/>
<path style="fill:#c2aaaa; stroke:none;" d="M385 183L386 184L385 183z"/>
<path style="fill:#2c5d56; stroke:none;" d="M402 183L403 184L402 183z"/>
<path style="fill:#969696; stroke:none;" d="M469 183L470 184L469 183z"/>
<path style="fill:#5e605d; stroke:none;" d="M424 184L425 185L424 184z"/>
<path style="fill:#6d6663; stroke:none;" d="M384 185L385 186L384 185z"/>
<path style="fill:#796b69; stroke:none;" d="M401 185L402 186L401 185z"/>
<path style="fill:#766a67; stroke:none;" d="M407 185L408 186L407 185z"/>
<path style="fill:#c6afae; stroke:none;" d="M424 185L425 186L424 185z"/>
<path style="fill:#d3d3d3; stroke:none;" d="M470 185L471 186L470 185z"/>
<path style="fill:#5a5a5a; stroke:none;" d="M335 186L336 187L335 186z"/>
<path style="fill:#969696; stroke:none;" d="M471 186L472 187L471 186z"/>
<path style="fill:#206059; stroke:none;" d="M383 187L384 188L383 187z"/>
<path style="fill:#c8b3b3; stroke:none;" d="M400 187L401 188L400 187z"/>
<path style="fill:#6d6663; stroke:none;" d="M425 187L426 188L425 187z"/>
<path style="fill:#82706e; stroke:none;" d="M383 188L384 189L383 188z"/>
<path style="fill:#60615e; stroke:none;" d="M400 188L401 189L400 188z"/>
<path style="fill:#736966; stroke:none;" d="M408 188L409 189L408 188z"/>
<path style="fill:#969696; stroke:none;" d="M472 188L473 189L472 188z"/>
<path style="fill:#f7f7f7; stroke:none;" d="M334 189L335 190L334 189z"/>
<path style="fill:#1f6159; stroke:none;" d="M426 189L427 190L426 189z"/>
<path style="fill:#373737; stroke:none;" d="M473 189L474 190L473 189z"/>
<path style="fill:#2f5b55; stroke:none;" d="M382 190L383 191L382 190z"/>
<path style="fill:#b59b9a; stroke:none;" d="M399 190L400 191L399 190z"/>
<path style="fill:#7e6e6c; stroke:none;" d="M426 190L427 191L426 190z"/>
<path style="fill:#d3d3d3; stroke:none;" d="M473 190L474 191L473 190z"/>
<path style="fill:#989898; stroke:none;" d="M333 191L334 192L333 191z"/>
<path style="fill:#967d7c; stroke:none;" d="M382 191L383 192L382 191z"/>
<path style="fill:#495c57; stroke:none;" d="M399 191L400 192L399 191z"/>
<path style="fill:#716765; stroke:none;" d="M409 191L410 192L409 191z"/>
<path style="fill:#969696; stroke:none;" d="M474 191L475 192L474 191z"/>
<path style="fill:#2a5c56; stroke:none;" d="M427 192L428 193L427 192z"/>
<path style="fill:#686868; stroke:none;" d="M475 192L476 193L475 192z"/>
<path style="fill:#343434; stroke:none;" d="M332 193L333 194L332 193z"/>
<path style="fill:#405b56; stroke:none;" d="M381 193L382 194L381 193z"/>
<path style="fill:#9c8382; stroke:none;" d="M398 193L399 194L398 193z"/>
<path style="fill:#8f7877; stroke:none;" d="M427 193L428 194L427 193z"/>
<path style="fill:#aa8f8e; stroke:none;" d="M381 194L382 195L381 194z"/>
<path style="fill:#335b56; stroke:none;" d="M398 194L399 195L398 194z"/>
<path style="fill:#6d6663; stroke:none;" d="M410 194L411 195L410 194z"/>
<path style="fill:#d3d3d3; stroke:none;" d="M476 194L477 195L476 194z"/>
<path style="fill:#303030; stroke:none;" d="M331 195L332 196L331 195z"/>
<path style="fill:#365b55; stroke:none;" d="M428 195L429 196L428 195z"/>
<path style="fill:#969696; stroke:none;" d="M477 195L478 196L477 195z"/>
<path style="fill:#525d59; stroke:none;" d="M380 196L381 197L380 196z"/>
<path style="fill:#83706f; stroke:none;" d="M397 196L398 197L397 196z"/>
<path style="fill:#9e8483; stroke:none;" d="M428 196L429 197L428 196z"/>
<path style="fill:#969696; stroke:none;" d="M478 196L479 197L478 196z"/>
<path style="fill:#434343; stroke:none;" d="M330 197L331 198L330 197z"/>
<path style="fill:#bca3a3; stroke:none;" d="M380 197L381 198L380 197z"/>
<path style="fill:#206059; stroke:none;" d="M397 197L398 198L397 197z"/>
<path style="fill:#6b6562; stroke:none;" d="M411 197L412 198L411 197z"/>
<path style="fill:#455a56; stroke:none;" d="M429 198L430 199L429 198z"/>
<path style="fill:#989898; stroke:none;" d="M329 199L330 200L329 199z"/>
<path style="fill:#676360; stroke:none;" d="M379 199L380 200L379 199z"/>
<path style="fill:#6a6462; stroke:none;" d="M396 199L397 200L396 199z"/>
<path style="fill:#c8b3b3; stroke:none;" d="M412 199L413 200L412 199z"/>
<path style="fill:#ae9392; stroke:none;" d="M429 199L430 200L429 199z"/>
<path style="fill:#989898; stroke:none;" d="M480 199L481 200L480 199z"/>
<path style="fill:#696461; stroke:none;" d="M412 200L413 201L412 200z"/>
<path style="fill:#e7e7e7; stroke:none;" d="M328 201L329 202L328 201z"/>
<path style="fill:#1c625a; stroke:none;" d="M378 201L379 202L378 201z"/>
<path style="fill:#bca3a3; stroke:none;" d="M395 201L396 202L395 201z"/>
<path style="fill:#555e5a; stroke:none;" d="M430 201L431 202L430 201z"/>
<path style="fill:#e7e7e7; stroke:none;" d="M481 201L482 202L481 201z"/>
<path style="fill:#7a6c6a; stroke:none;" d="M378 202L379 203L378 202z"/>
<path style="fill:#515d58; stroke:none;" d="M395 202L396 203L395 202z"/>
<path style="fill:#c6b0b0; stroke:none;" d="M413 202L414 203L413 202z"/>
<path style="fill:#bca3a3; stroke:none;" d="M430 202L431 203L430 202z"/>
<path style="fill:#65635f; stroke:none;" d="M413 203L414 204L413 203z"/>
<path style="fill:#9d9d9d; stroke:none;" d="M326 204L327 205L326 204z"/>
<path style="fill:#295c55; stroke:none;" d="M377 204L378 205L377 204z"/>
<path style="fill:#a68b8a; stroke:none;" d="M394 204L395 205L394 204z"/>
<path style="fill:#64625f; stroke:none;" d="M431 204L432 205L431 204z"/>
<path style="fill:#9d9d9d; stroke:none;" d="M483 204L484 205L483 204z"/>
<path style="fill:#8f7877; stroke:none;" d="M377 205L378 206L377 205z"/>
<path style="fill:#3b5a55; stroke:none;" d="M394 205L395 206L394 205z"/>
<path style="fill:#c6afae; stroke:none;" d="M414 205L415 206L414 205z"/>
<path style="fill:#c8b3b3; stroke:none;" d="M431 205L432 206L431 205z"/>
<path style="fill:#63625e; stroke:none;" d="M414 206L415 207L414 206z"/>
<path style="fill:#e7e7e7; stroke:none;" d="M324 207L325 208L324 207z"/>
<path style="fill:#3b5a55; stroke:none;" d="M376 207L377 208L376 207z"/>
<path style="fill:#8d7776; stroke:none;" d="M393 207L394 208L393 207z"/>
<path style="fill:#746966; stroke:none;" d="M432 207L433 208L432 207z"/>
<path style="fill:#e7e7e7; stroke:none;" d="M485 207L486 208L485 207z"/>
<path style="fill:#737373; stroke:none;" d="M323 208L324 209L323 208z"/>
<path style="fill:#a48a89; stroke:none;" d="M376 208L377 209L376 208z"/>
<path style="fill:#275e57; stroke:none;" d="M393 208L394 209L393 208z"/>
<path style="fill:#c2aaaa; stroke:none;" d="M415 208L416 209L415 208z"/>
<path style="fill:#737373; stroke:none;" d="M486 208L487 209L486 208z"/>
<path style="fill:#5f605d; stroke:none;" d="M415 209L416 210L415 209z"/>
<path style="fill:#245f58; stroke:none;" d="M433 209L434 210L433 209z"/>
<path style="fill:#4d5c58; stroke:none;" d="M375 210L376 211L375 210z"/>
<path style="fill:#736966; stroke:none;" d="M392 210L393 211L392 210z"/>
<path style="fill:#867371; stroke:none;" d="M433 210L434 211L433 210z"/>
<path style="fill:#f7f7f7; stroke:none;" d="M321 211L322 212L321 211z"/>
<path style="fill:#b79d9d; stroke:none;" d="M375 211L376 212L375 211z"/>
<path style="fill:#bfa7a6; stroke:none;" d="M416 211L417 212L416 211z"/>
<path style="fill:#f7f7f7; stroke:none;" d="M488 211L489 212L488 211z"/>
<path style="fill:#d3d3d3; stroke:none;" d="M320 212L321 213L320 212z"/>
<path style="fill:#c4adad; stroke:none;" d="M391 212L392 213L391 212z"/>
<path style="fill:#5d5f5c; stroke:none;" d="M416 212L417 213L416 212z"/>
<path style="fill:#2f5b55; stroke:none;" d="M434 212L435 213L434 212z"/>
<path style="fill:#d3d3d3; stroke:none;" d="M489 212L490 213L489 212z"/>
<path style="fill:#9d9d9d; stroke:none;" d="M319 213L320 214L319 213z"/>
<path style="fill:#60615e; stroke:none;" d="M374 213L375 214L374 213z"/>
<path style="fill:#5a5f5b; stroke:none;" d="M391 213L392 214L391 213z"/>
<path style="fill:#947d7b; stroke:none;" d="M434 213L435 214L434 213z"/>
<path style="fill:#9d9d9d; stroke:none;" d="M490 213L491 214L490 213M318 214L319 215L318 214z"/>
<path style="fill:#c6b0b0; stroke:none;" d="M374 214L375 215L374 214z"/>
<path style="fill:#bda4a4; stroke:none;" d="M417 214L418 215L417 214z"/>
<path style="fill:#9d9d9d; stroke:none;" d="M491 214L492 215L491 214z"/>
<path style="fill:#a3a3a3; stroke:none;" d="M317 215L318 216L317 215z"/>
<path style="fill:#ae9392; stroke:none;" d="M390 215L391 216L390 215z"/>
<path style="fill:#5a5f5b; stroke:none;" d="M417 215L418 216L417 215z"/>
<path style="fill:#3d5a55; stroke:none;" d="M435 215L436 216L435 215z"/>
<path style="fill:#a3a3a3; stroke:none;" d="M492 215L493 216L492 215M316 216L317 217L316 216z"/>
<path style="fill:#746966; stroke:none;" d="M373 216L374 217L373 216z"/>
<path style="fill:#445b56; stroke:none;" d="M390 216L391 217L390 216z"/>
<path style="fill:#a68b8a; stroke:none;" d="M435 216L436 217L435 216z"/>
<path style="fill:#a3a3a3; stroke:none;" d="M493 216L494 217L493 216z"/>
<path style="fill:#a9a9a9; stroke:none;" d="M315 217L316 218L315 217z"/>
<path style="fill:#bca2a2; stroke:none;" d="M418 217L419 218L418 217z"/>
<path style="fill:#a9a9a9; stroke:none;" d="M494 217L495 218L494 217z"/>
<path style="fill:#cbcbcb; stroke:none;" d="M314 218L315 219L314 218z"/>
<path style="fill:#255e57; stroke:none;" d="M372 218L373 219L372 218z"/>
<path style="fill:#967d7c; stroke:none;" d="M389 218L390 219L389 218z"/>
<path style="fill:#575e5b; stroke:none;" d="M418 218L419 219L418 218z"/>
<path style="fill:#4c5c57; stroke:none;" d="M436 218L437 219L436 218z"/>
<path style="fill:#cbcbcb; stroke:none;" d="M495 218L496 219L495 218z"/>
<path style="fill:#f7f7f7; stroke:none;" d="M313 219L314 220L313 219z"/>
<path style="fill:#897473; stroke:none;" d="M372 219L373 220L372 219z"/>
<path style="fill:#2f5c56; stroke:none;" d="M389 219L390 220L389 219z"/>
<path style="fill:#b59b9a; stroke:none;" d="M436 219L437 220L436 219z"/>
<path style="fill:#f7f7f7; stroke:none;" d="M496 219L497 220L496 219z"/>
<path style="fill:#baa09f; stroke:none;" d="M419 220L420 221L419 220z"/>
<path style="fill:#575757; stroke:none;" d="M310 221L311 222L310 221z"/>
<path style="fill:#355b55; stroke:none;" d="M371 221L372 222L371 221z"/>
<path style="fill:#7c6d6b; stroke:none;" d="M388 221L389 222L388 221z"/>
<path style="fill:#555e5a; stroke:none;" d="M419 221L420 222L419 221z"/>
<path style="fill:#5a5f5b; stroke:none;" d="M437 221L438 222L437 221z"/>
<path style="fill:#575757; stroke:none;" d="M499 221L500 222L499 221z"/>
<path style="fill:#cbcbcb; stroke:none;" d="M309 222L310 223L309 222z"/>
<path style="fill:#9d8382; stroke:none;" d="M371 222L372 223L371 222z"/>
<path style="fill:#c2aaaa; stroke:none;" d="M437 222L438 223L437 222z"/>
<path style="fill:#cbcbcb; stroke:none;" d="M500 222L501 223L500 222z"/>
<path style="fill:#b79d9d; stroke:none;" d="M420 223L421 224L420 223z"/>
<path style="fill:#414141; stroke:none;" d="M306 224L307 225L306 224z"/>
<path style="fill:#465b56; stroke:none;" d="M370 224L371 225L370 224z"/>
<path style="fill:#64625f; stroke:none;" d="M387 224L388 225L387 224z"/>
<path style="fill:#515d58; stroke:none;" d="M420 224L421 225L420 224z"/>
<path style="fill:#6b6562; stroke:none;" d="M438 224L439 225L438 224z"/>
<path style="fill:#414141; stroke:none;" d="M503 224L504 225L503 224z"/>
<path style="fill:#efefef; stroke:none;" d="M305 225L306 226L305 225z"/>
<path style="fill:#b09595; stroke:none;" d="M370 225L371 226L370 225z"/>
<path style="fill:#efefef; stroke:none;" d="M504 225L505 226L504 225z"/>
<path style="fill:#989898; stroke:none;" d="M303 226L304 227L303 226z"/>
<path style="fill:#b79d9d; stroke:none;" d="M386 226L387 227L386 226z"/>
<path style="fill:#b39998; stroke:none;" d="M421 226L422 227L421 226z"/>
<path style="fill:#1d625a; stroke:none;" d="M439 226L440 227L439 226z"/>
<path style="fill:#989898; stroke:none;" d="M506 226L507 227L506 226z"/>
<path style="fill:#4b4b4b; stroke:none;" d="M301 227L302 228L301 227z"/>
<path style="fill:#595e5b; stroke:none;" d="M369 227L370 228L369 227z"/>
<path style="fill:#4c5c57; stroke:none;" d="M386 227L387 228L386 227z"/>
<path style="fill:#4f5c58; stroke:none;" d="M421 227L422 228L421 227z"/>
<path style="fill:#7b6c6a; stroke:none;" d="M439 227L440 228L439 227z"/>
<path style="fill:#4b4b4b; stroke:none;" d="M508 227L509 228L508 227z"/>
<path style="fill:#787878; stroke:none;" d="M299 228L300 229L299 228z"/>
<path style="fill:#c3abab; stroke:none;" d="M369 228L370 229L369 228z"/>
<path style="fill:#787878; stroke:none;" d="M510 228L511 229L510 228z"/>
<path style="fill:#818181; stroke:none;" d="M255 229L256 230L255 229z"/>
<path style="fill:#b8b8b8; stroke:none;" d="M297 229L298 230L297 229z"/>
<path style="fill:#9f8584; stroke:none;" d="M385 229L386 230L385 229z"/>
<path style="fill:#b29797; stroke:none;" d="M422 229L423 230L422 229z"/>
<path style="fill:#285e57; stroke:none;" d="M440 229L441 230L440 229z"/>
<path style="fill:#b8b8b8; stroke:none;" d="M512 229L513 230L512 229z"/>
<path style="fill:#2e2e2e; stroke:none;" d="M553 229L554 230L553 229z"/>
<path style="fill:#e7e7e7; stroke:none;" d="M554 229L555 230L554 229z"/>
<path style="fill:#434343; stroke:none;" d="M259 230L260 231L259 230z"/>
<path style="fill:#efefef; stroke:none;" d="M295 230L296 231L295 230z"/>
<path style="fill:#6f6664; stroke:none;" d="M368 230L369 231L368 230z"/>
<path style="fill:#355b55; stroke:none;" d="M385 230L386 231L385 230z"/>
<path style="fill:#4d5c58; stroke:none;" d="M422 230L423 231L422 230z"/>
<path style="fill:#8b7674; stroke:none;" d="M440 230L441 231L440 230z"/>
<path style="fill:#efefef; stroke:none;" d="M514 230L515 231L514 230z"/>
<path style="fill:#b8b8b8; stroke:none;" d="M550 230L551 231L550 230z"/>
<path style="fill:#464646; stroke:none;" d="M554 230L555 231L554 230z"/>
<path style="fill:#6c6c6c; stroke:none;" d="M256 231L257 232L256 231z"/>
<path style="fill:#3d3d3d; stroke:none;" d="M263 231L264 232L263 231z"/>
<path style="fill:#afafaf; stroke:none;" d="M546 231L547 232L546 231z"/>
<path style="fill:#dddddd; stroke:none;" d="M553 231L554 232L553 231z"/>
<path style="fill:#f7f7f7; stroke:none;" d="M257 232L258 233L257 232z"/>
<path style="fill:#737373; stroke:none;" d="M267 232L268 233L267 232z"/>
<path style="fill:#f7f7f7; stroke:none;" d="M290 232L291 233L290 232z"/>
<path style="fill:#206058; stroke:none;" d="M367 232L368 233L367 232z"/>
<path style="fill:#867270; stroke:none;" d="M384 232L385 233L384 232z"/>
<path style="fill:#ae9392; stroke:none;" d="M423 232L424 233L423 232z"/>
<path style="fill:#355b55; stroke:none;" d="M441 232L442 233L441 232z"/>
<path style="fill:#f7f7f7; stroke:none;" d="M519 232L520 233L519 232z"/>
<path style="fill:#494949; stroke:none;" d="M541 232L542 233L541 232z"/>
<path style="fill:#e1e1e1; stroke:none;" d="M542 232L543 233L542 232z"/>
<path style="fill:#989898; stroke:none;" d="M272 233L273 234L272 233z"/>
<path style="fill:#8d8d8d; stroke:none;" d="M286 233L287 234L286 233z"/>
<path style="fill:#83706f; stroke:none;" d="M367 233L368 234L367 233z"/>
<path style="fill:#225f58; stroke:none;" d="M384 233L385 234L384 233z"/>
<path style="fill:#4a5c57; stroke:none;" d="M423 233L424 234L423 233z"/>
<path style="fill:#9c8382; stroke:none;" d="M441 233L442 234L441 233z"/>
<path style="fill:#8d8d8d; stroke:none;" d="M523 233L524 234L523 233z"/>
<path style="fill:#373737; stroke:none;" d="M535 233L536 234L535 233z"/>
<path style="fill:#888888; stroke:none;" d="M536 233L537 234L536 233z"/>
<path style="fill:#efefef; stroke:none;" d="M537 233L538 234L537 233z"/>
<path style="fill:#717171; stroke:none;" d="M551 234L552 235L551 234z"/>
<path style="fill:#575757; stroke:none;" d="M259 235L260 236L259 235z"/>
<path style="fill:#305c56; stroke:none;" d="M366 235L367 236L366 235z"/>
<path style="fill:#6d6663; stroke:none;" d="M383 235L384 236L383 235z"/>
<path style="fill:#ab9190; stroke:none;" d="M424 235L425 236L424 235z"/>
<path style="fill:#445b56; stroke:none;" d="M442 235L443 236L442 235z"/>
<path style="fill:#cbcbcb; stroke:none;" d="M550 235L551 236L550 235z"/>
<path style="fill:#b2b2b2; stroke:none;" d="M260 236L261 237L260 236z"/>
<path style="fill:#977f7e; stroke:none;" d="M366 236L367 237L366 236z"/>
<path style="fill:#475b57; stroke:none;" d="M424 236L425 237L424 236z"/>
<path style="fill:#ab9190; stroke:none;" d="M442 236L443 237L442 236z"/>
<path style="fill:#f7f7f7; stroke:none;" d="M549 236L550 237L549 236M261 237L262 238L261 237z"/>
<path style="fill:#7f6f6d; stroke:none;" d="M383 237C387.215 238.769 392.464 238 397 238L425 238C420.785 236.231 415.536 237 411 237L383 237z"/>
<path style="fill:#415a55; stroke:none;" d="M365 238L366 239L365 238z"/>
<path style="fill:#515d58; stroke:none;" d="M443 238L444 239L443 238z"/>
<path style="fill:#ab908f; stroke:none;" d="M365 239L366 240L365 239z"/>
<path style="fill:#baa0a0; stroke:none;" d="M443 239L444 240L443 239z"/>
<path style="fill:#373737; stroke:none;" d="M546 240L547 241L546 240z"/>
<path style="fill:#545d59; stroke:none;" d="M364 241L365 242L364 241z"/>
<path style="fill:#61615e; stroke:none;" d="M444 241L445 242L444 241z"/>
<path style="fill:#525252; stroke:none;" d="M545 241L546 242L545 241z"/>
<path style="fill:#bda4a4; stroke:none;" d="M364 242L365 243L364 242z"/>
<path style="fill:#c8b2b2; stroke:none;" d="M444 242L445 243L444 242z"/>
<path style="fill:#717171; stroke:none;" d="M544 242L545 243L544 242z"/>
<path style="fill:#929292; stroke:none;" d="M543 243L544 244L543 243z"/>
<path style="fill:#414141; stroke:none;" d="M267 244L268 245L267 244z"/>
<path style="fill:#686461; stroke:none;" d="M363 244L364 245L363 244z"/>
<path style="fill:#726866; stroke:none;" d="M445 244L446 245L445 244z"/>
<path style="fill:#b5b5b5; stroke:none;" d="M542 244L543 245L542 244z"/>
<path style="fill:#5a5a5a; stroke:none;" d="M268 245L269 246L268 245z"/>
<path style="fill:#cfcfcf; stroke:none;" d="M541 245L542 246L541 245z"/>
<path style="fill:#787878; stroke:none;" d="M269 246L270 247L269 246z"/>
<path style="fill:#1c615a; stroke:none;" d="M362 246L363 247L362 246z"/>
<path style="fill:#206058; stroke:none;" d="M446 246L447 247L446 246z"/>
<path style="fill:#e1e1e1; stroke:none;" d="M540 246L541 247L540 246z"/>
<path style="fill:#9d9d9d; stroke:none;" d="M270 247L271 248L270 247z"/>
<path style="fill:#7b6c6a; stroke:none;" d="M362 247L363 248L362 247z"/>
<path style="fill:#82706e; stroke:none;" d="M446 247L447 248L446 247z"/>
<path style="fill:#f3f3f3; stroke:none;" d="M539 247L540 248L539 247z"/>
<path style="fill:#868686; stroke:none;" d="M271 248L272 249L271 248z"/>
<path style="fill:#e7e7e7; stroke:none;" d="M538 248L539 249L538 248z"/>
<path style="fill:#656565; stroke:none;" d="M272 249L273 250L272 249z"/>
<path style="fill:#2a5c56; stroke:none;" d="M361 249L362 250L361 249z"/>
<path style="fill:#2d5c56; stroke:none;" d="M447 249L448 250L447 249z"/>
<path style="fill:#d5d5d5; stroke:none;" d="M537 249L538 250L537 249z"/>
<path style="fill:#484848; stroke:none;" d="M273 250L274 251L273 250z"/>
<path style="fill:#907978; stroke:none;" d="M361 250L362 251L361 250z"/>
<path style="fill:#917a79; stroke:none;" d="M447 250L448 251L447 250z"/>
<path style="fill:#bbbbbb; stroke:none;" d="M536 250L537 251L536 250z"/>
<path style="fill:#323232; stroke:none;" d="M274 251L275 252L274 251z"/>
<path style="fill:#7c6d6b; stroke:none;" d="M378 251L379 252L378 251z"/>
<path style="fill:#009688; stroke:none;" d="M351 291C358.082 295.457 367.126 295.269 373.996 300.354C388.607 311.169 390.591 328.224 399 343L0 343L0 355L792 355L792 343L411 343C419.676 327.755 421.663 308.962 438 298.991C443.998 295.33 452.198 293.574 459 292C454.38 290.061 447.421 292.864 443.51 289.397C441.261 287.403 440.578 283.731 439.667 281L433 261C432.102 258.31 431.437 254.629 429.298 252.603C426.454 249.91 420.581 251 417 251L392 251C388.524 251 383.508 250.111 380.278 251.603C376.294 253.444 375.258 261.231 374 265C372.097 270.703 369.914 276.3 368 282C367.083 284.732 366.345 288.329 363.722 289.972C360.428 292.036 354.734 291 351 291z"/>
<path style="fill:#225f58; stroke:none;" d="M429 251L430 252L429 251z"/>
<path style="fill:#a0a0a0; stroke:none;" d="M535 251L536 252L535 251z"/>
<path style="fill:#3b5a55; stroke:none;" d="M360 252L361 253L360 252M448 252L449 253L448 252z"/>
<path style="fill:#606060; stroke:none;" d="M534 252L535 253L534 252z"/>
<path style="fill:#a48a89; stroke:none;" d="M360 253L361 254L360 253z"/>
<path style="fill:#796b69; stroke:none;" d="M430 253L431 254L430 253z"/>
<path style="fill:#a38988; stroke:none;" d="M448 253L449 254L448 253z"/>
<path style="fill:#d9d9d9; stroke:none;" d="M278 254L279 255L278 254z"/>
<path style="fill:#6f6664; stroke:none;" d="M377 254L378 255L377 254z"/>
<path style="fill:#868686; stroke:none;" d="M279 255L280 256L279 255z"/>
<path style="fill:#4f5d58; stroke:none;" d="M359 255L360 256L359 255z"/>
<path style="fill:#495c57; stroke:none;" d="M449 255L450 256L449 255z"/>
<path style="fill:#e7e7e7; stroke:none;" d="M530 255L531 256L530 255z"/>
<path style="fill:#383838; stroke:none;" d="M280 256L281 257L280 256z"/>
<path style="fill:#b89e9e; stroke:none;" d="M359 256L360 257L359 256z"/>
<path style="fill:#c6b0b0; stroke:none;" d="M376 256L377 257L376 256z"/>
<path style="fill:#736966; stroke:none;" d="M431 256L432 257L431 256z"/>
<path style="fill:#b29797; stroke:none;" d="M449 256L450 257L449 256z"/>
<path style="fill:#a9a9a9; stroke:none;" d="M529 256L530 257L529 256z"/>
<path style="fill:#60615e; stroke:none;" d="M376 257L377 258L376 257z"/>
<path style="fill:#4f4f4f; stroke:none;" d="M528 257L529 258L528 257z"/>
<path style="fill:#61615e; stroke:none;" d="M358 258L359 259L358 258z"/>
<path style="fill:#595f5b; stroke:none;" d="M450 258L451 259L450 258z"/>
<path style="fill:#c5c5c5; stroke:none;" d="M284 259L285 260L284 259z"/>
<path style="fill:#c8b2b2; stroke:none;" d="M358 259L359 260L358 259z"/>
<path style="fill:#baa0a0; stroke:none;" d="M375 259L376 260L375 259z"/>
<path style="fill:#6f6664; stroke:none;" d="M432 259L433 260L432 259z"/>
<path style="fill:#bfa7a6; stroke:none;" d="M450 259L451 260L450 259z"/>
<path style="fill:#fbfbfb; stroke:none;" d="M525 259L526 260L525 259z"/>
<path style="fill:#3a3a3a; stroke:none;" d="M285 260L286 261L285 260z"/>
<path style="fill:#525d59; stroke:none;" d="M375 260L376 261L375 260z"/>
<path style="fill:#ababab; stroke:none;" d="M524 260L525 261L524 260z"/>
<path style="fill:#766a67; stroke:none;" d="M357 261L358 262L357 261z"/>
<path style="fill:#696461; stroke:none;" d="M451 261L452 262L451 261z"/>
<path style="fill:#929292; stroke:none;" d="M288 262L289 263L288 262z"/>
<path style="fill:#ad9292; stroke:none;" d="M374 262L375 263L374 262z"/>
<path style="fill:#696461; stroke:none;" d="M433 262L434 263L433 262z"/>
<path style="fill:#efefef; stroke:none;" d="M521 262L522 263L521 262z"/>
<path style="fill:#265d56; stroke:none;" d="M356 263L357 264L356 263z"/>
<path style="fill:#445a56; stroke:none;" d="M374 263L375 264L374 263z"/>
<path style="fill:#1c625a; stroke:none;" d="M452 263L453 264L452 263z"/>
<path style="fill:#565656; stroke:none;" d="M520 263L521 264L520 263z"/>
<path style="fill:#888888; stroke:none;" d="M291 264L292 265L291 264z"/>
<path style="fill:#8a7574; stroke:none;" d="M356 264L357 265L356 264z"/>
<path style="fill:#c5aeae; stroke:none;" d="M434 264L435 265L434 264z"/>
<path style="fill:#786a68; stroke:none;" d="M452 264L453 265L452 264z"/>
<path style="fill:#ebebeb; stroke:none;" d="M518 264L519 265L518 264z"/>
<path style="fill:#9f8584; stroke:none;" d="M373 265L374 266L373 265z"/>
<path style="fill:#63625e; stroke:none;" d="M434 265L435 266L434 265z"/>
<path style="fill:#343434; stroke:none;" d="M517 265L518 266L517 265z"/>
<path style="fill:#686868; stroke:none;" d="M294 266L295 267L294 266z"/>
<path style="fill:#365b55; stroke:none;" d="M355 266L356 267L355 266z"/>
<path style="fill:#385b55; stroke:none;" d="M373 266L374 267L373 266z"/>
<path style="fill:#265d56; stroke:none;" d="M453 266L454 267L453 266z"/>
<path style="fill:#d9d9d9; stroke:none;" d="M515 266L516 267L515 266z"/>
<path style="fill:#f7f7f7; stroke:none;" d="M296 267L297 268L296 267z"/>
<path style="fill:#9e8483; stroke:none;" d="M355 267L356 268L355 267z"/>
<path style="fill:#c2aaaa; stroke:none;" d="M435 267L436 268L435 267z"/>
<path style="fill:#897473; stroke:none;" d="M453 267L454 268L453 267z"/>
<path style="fill:#525252; stroke:none;" d="M297 268L298 269L297 268z"/>
<path style="fill:#907978; stroke:none;" d="M372 268L373 269L372 268z"/>
<path style="fill:#5e605d; stroke:none;" d="M435 268L436 269L435 268z"/>
<path style="fill:#c5c5c5; stroke:none;" d="M512 268L513 269L512 268z"/>
<path style="fill:#d3d3d3; stroke:none;" d="M299 269L300 270L299 269z"/>
<path style="fill:#475b57; stroke:none;" d="M354 269L355 270L354 269z"/>
<path style="fill:#2c5c56; stroke:none;" d="M372 269L373 270L372 269z"/>
<path style="fill:#335b56; stroke:none;" d="M454 269L455 270L454 269z"/>
<path style="fill:#fbfbfb; stroke:none;" d="M510 269L511 270L510 269z"/>
<path style="fill:#b29797; stroke:none;" d="M354 270L355 271L354 270z"/>
<path style="fill:#bda4a4; stroke:none;" d="M436 270L437 271L436 270z"/>
<path style="fill:#99807f; stroke:none;" d="M454 270L455 271L454 270z"/>
<path style="fill:#424242; stroke:none;" d="M509 270L510 271L509 270z"/>
<path style="fill:#3a3a3a; stroke:none;" d="M302 271L303 272L302 271z"/>
<path style="fill:#82706e; stroke:none;" d="M371 271L372 272L371 271z"/>
<path style="fill:#595f5b; stroke:none;" d="M436 271L437 272L436 271z"/>
<path style="fill:#ababab; stroke:none;" d="M507 271L508 272L507 271z"/>
<path style="fill:#606060; stroke:none;" d="M304 272L305 273L304 272z"/>
<path style="fill:#5a5f5b; stroke:none;" d="M353 272L354 273L353 272z"/>
<path style="fill:#225f58; stroke:none;" d="M371 272L372 273L371 272z"/>
<path style="fill:#405b56; stroke:none;" d="M455 272L456 273L455 272z"/>
<path style="fill:#d3d3d3; stroke:none;" d="M505 272L506 273L505 272z"/>
<path style="fill:#737373; stroke:none;" d="M306 273L307 274L306 273z"/>
<path style="fill:#c3abab; stroke:none;" d="M353 273L354 274L353 273z"/>
<path style="fill:#b89e9e; stroke:none;" d="M437 273L438 274L437 273z"/>
<path style="fill:#a88d8d; stroke:none;" d="M455 273L456 274L455 273z"/>
<path style="fill:#737373; stroke:none;" d="M503 273L504 274L503 273z"/>
<path style="fill:#888888; stroke:none;" d="M308 274L309 275L308 274z"/>
<path style="fill:#736966; stroke:none;" d="M370 274L371 275L370 274z"/>
<path style="fill:#525d59; stroke:none;" d="M437 274L438 275L437 274z"/>
<path style="fill:#888888; stroke:none;" d="M501 274L502 275L501 274z"/>
<path style="fill:#a3a3a3; stroke:none;" d="M310 275L311 276L310 275z"/>
<path style="fill:#6f6664; stroke:none;" d="M352 275L353 276L352 275z"/>
<path style="fill:#4f5c58; stroke:none;" d="M456 275L457 276L456 275z"/>
<path style="fill:#a3a3a3; stroke:none;" d="M499 275L500 276L499 275z"/>
<path style="fill:#b8b8b8; stroke:none;" d="M312 276L313 277L312 276z"/>
<path style="fill:#b39897; stroke:none;" d="M438 276L439 277L438 276z"/>
<path style="fill:#b89e9e; stroke:none;" d="M456 276L457 277L456 276z"/>
<path style="fill:#b8b8b8; stroke:none;" d="M497 276L498 277L497 276z"/>
<path style="fill:#a9a9a9; stroke:none;" d="M314 277L315 278L314 277z"/>
<path style="fill:#206058; stroke:none;" d="M351 277L352 278L351 277z"/>
<path style="fill:#65635f; stroke:none;" d="M369 277L370 278L369 277z"/>
<path style="fill:#4f5d58; stroke:none;" d="M438 277L439 278L438 277z"/>
<path style="fill:#a9a9a9; stroke:none;" d="M495 277L496 278L495 277z"/>
<path style="fill:#7c7c7c; stroke:none;" d="M316 278L317 279L316 278z"/>
<path style="fill:#847270; stroke:none;" d="M351 278L352 279L351 278z"/>
<path style="fill:#5f605d; stroke:none;" d="M457 278L458 279L457 278z"/>
<path style="fill:#7c7c7c; stroke:none;" d="M493 278L494 279L493 278z"/>
<path style="fill:#484848; stroke:none;" d="M318 279L319 280L318 279z"/>
<path style="fill:#bea6a5; stroke:none;" d="M368 279L369 280L368 279z"/>
<path style="fill:#ae9392; stroke:none;" d="M439 279L440 280L439 279z"/>
<path style="fill:#c5aeae; stroke:none;" d="M457 279L458 280L457 279z"/>
<path style="fill:#484848; stroke:none;" d="M491 279L492 280L491 279z"/>
<path style="fill:#efefef; stroke:none;" d="M321 280L322 281L321 280z"/>
<path style="fill:#315b55; stroke:none;" d="M350 280L351 281L350 280z"/>
<path style="fill:#565e5a; stroke:none;" d="M368 280L369 281L368 280z"/>
<path style="fill:#495c57; stroke:none;" d="M439 280L440 281L439 280z"/>
<path style="fill:#efefef; stroke:none;" d="M488 280L489 281L488 280z"/>
<path style="fill:#989898; stroke:none;" d="M323 281L324 282L323 281z"/>
<path style="fill:#98807e; stroke:none;" d="M350 281L351 282L350 281z"/>
<path style="fill:#6f6664; stroke:none;" d="M458 281L459 282L458 281z"/>
<path style="fill:#989898; stroke:none;" d="M486 281L487 282L486 281z"/>
<path style="fill:#343434; stroke:none;" d="M325 282L326 283L325 282z"/>
<path style="fill:#b29797; stroke:none;" d="M367 282L368 283L367 282z"/>
<path style="fill:#a88d8d; stroke:none;" d="M440 282L441 283L440 282z"/>
<path style="fill:#343434; stroke:none;" d="M484 282L485 283L484 282z"/>
<path style="fill:#d9d9d9; stroke:none;" d="M328 283L329 284L328 283z"/>
<path style="fill:#425a56; stroke:none;" d="M349 283L350 284L349 283z"/>
<path style="fill:#495c57; stroke:none;" d="M367 283L368 284L367 283z"/>
<path style="fill:#445b56; stroke:none;" d="M440 283L441 284L440 283z"/>
<path style="fill:#1f6059; stroke:none;" d="M459 283L460 284L459 283z"/>
<path style="fill:#d9d9d9; stroke:none;" d="M481 283L482 284L481 283z"/>
<path style="fill:#4f4f4f; stroke:none;" d="M330 284L331 285L330 284z"/>
<path style="fill:#ab9190; stroke:none;" d="M349 284L350 285L349 284z"/>
<path style="fill:#7f6f6d; stroke:none;" d="M459 284L460 285L459 284z"/>
<path style="fill:#4f4f4f; stroke:none;" d="M479 284L480 285L479 284z"/>
<path style="fill:#afafaf; stroke:none;" d="M333 285L334 286L333 285z"/>
<path style="fill:#a38988; stroke:none;" d="M366 285L367 286L366 285M441 285L442 286L441 285z"/>
<path style="fill:#afafaf; stroke:none;" d="M476 285L477 286L476 285z"/>
<path style="fill:#e7e7e7; stroke:none;" d="M336 286L337 287L336 286z"/>
<path style="fill:#555e5a; stroke:none;" d="M348 286L349 287L348 286z"/>
<path style="fill:#3c5b56; stroke:none;" d="M366 286L367 287L366 286z"/>
<path style="fill:#3f5b56; stroke:none;" d="M441 286L442 287L441 286z"/>
<path style="fill:#2c5d56; stroke:none;" d="M460 286L461 287L460 286z"/>
<path style="fill:#e7e7e7; stroke:none;" d="M473 286L474 287L473 286z"/>
<path style="fill:#303030; stroke:none;" d="M338 287L339 288L338 287z"/>
<path style="fill:#bea6a5; stroke:none;" d="M348 287L349 288L348 287z"/>
<path style="fill:#907978; stroke:none;" d="M460 287L461 288L460 287z"/>
<path style="fill:#303030; stroke:none;" d="M471 287L472 288L471 287z"/>
<path style="fill:#5e5e5e; stroke:none;" d="M341 288L342 289L341 288z"/>
<path style="fill:#947d7b; stroke:none;" d="M365 288L366 289L365 288z"/>
<path style="fill:#9e8483; stroke:none;" d="M442 288L443 289L442 288z"/>
<path style="fill:#5e5e5e; stroke:none;" d="M468 288L469 289L468 288z"/>
<path style="fill:#989898; stroke:none;" d="M344 289L345 290L344 289z"/>
<path style="fill:#887171; stroke:none;" d="M347.333 289.667C347.278 289.722 347.222 290.778 347.667 290.333C347.722 290.278 347.778 289.222 347.333 289.667z"/>
<path style="fill:#305c56; stroke:none;" d="M365 289L366 290L365 289z"/>
<path style="fill:#3a5b56; stroke:none;" d="M442 289L443 290L442 289z"/>
<path style="fill:#295c55; stroke:none;" d="M461.333 289.667C461.278 289.722 461.222 290.778 461.667 290.333C461.722 290.278 461.778 289.222 461.333 289.667z"/>
<path style="fill:#989898; stroke:none;" d="M465 289L466 290L465 289z"/>
<path style="fill:#595e5b; stroke:none;" d="M348 290C352.974 292.087 359.638 291 365 291C360.026 288.913 353.362 290 348 290M443 290C448.222 292.191 455.368 291 461 291C455.778 288.809 448.632 290 443 290z"/>
<path style="fill:#cbcbcb; stroke:none;" d="M462 290L463 291L462 290z"/>
<path style="fill:#e1e1e1; stroke:none;" d="M350 291L351 292L350 291M459 291L460 292L459 291z"/>
<path style="fill:#a9a9a9; stroke:none;" d="M353 292L354 293L353 292M456 292L457 293L456 292z"/>
<path style="fill:#6c6c6c; stroke:none;" d="M356 293L357 294L356 293M453 293L454 294L453 293z"/>
<path style="fill:#3a3a3a; stroke:none;" d="M359 294L360 295L359 294M450 294L451 295L450 294z"/>
<path style="fill:#efefef; stroke:none;" d="M363 295L364 296L363 295M446 295L447 296L446 295z"/>
<path style="fill:#c5c5c5; stroke:none;" d="M366 296L367 297L366 296M443 296L444 297L443 296z"/>
<path style="fill:#8d8d8d; stroke:none;" d="M369 297L370 298L369 297M440 297L441 298L440 297z"/>
<path style="fill:#868686; stroke:none;" d="M371 298L372 299L371 298M438 298L439 299L438 298z"/>
<path style="fill:#efefef; stroke:none;" d="M373 299L374 300L373 299M436 299L437 300L436 299z"/>
<path style="fill:#5a5a5a; stroke:none;" d="M374 300L375 301L374 300M435 300L436 301L435 300z"/>
<path style="fill:#e7e7e7; stroke:none;" d="M379 304L380 305L379 304M430 304L431 305L430 304z"/>
<path style="fill:#5e5e5e; stroke:none;" d="M382 308L383 309L382 308M427 308L428 309L427 308z"/>
<path style="fill:#d3d3d3; stroke:none;" d="M383 309L384 310L383 309M426 309L427 310L426 309z"/>
<path style="fill:#464646; stroke:none;" d="M385 312L386 313L385 312M424 312L425 313L424 312z"/>
<path style="fill:#3d3d3d; stroke:none;" d="M388 318L389 319L388 318M421 318L422 319L421 318z"/>
<path style="fill:#989898; stroke:none;" d="M389 320L390 321L389 320M420 320L421 321L420 320z"/>
<path style="fill:#efefef; stroke:none;" d="M390 322L391 323L390 322M419 322L420 323L419 322z"/>
<path style="fill:#3d3d3d; stroke:none;" d="M391 325L392 326L391 325M418 325L419 326L418 325z"/>
<path style="fill:#d3d3d3; stroke:none;" d="M392 327L393 328L392 327M417 327L418 328L417 327z"/>
<path style="fill:#b2b2b2; stroke:none;" d="M393 330L394 331L393 330M416 330L417 331L416 330z"/>
<path style="fill:#434343; stroke:none;" d="M394 333L395 334L394 333M415 333L416 334L415 333z"/>
<path style="fill:#bebebe; stroke:none;" d="M395 335L396 336L395 335M414 335L415 336L414 335z"/>
<path style="fill:#2e2e2e; stroke:none;" d="M396 338L397 339L396 338M413 338L414 339L413 338z"/>
<path style="fill:#686868; stroke:none;" d="M397 340L398 341L397 340M412 340L413 341L412 340z"/>
<path style="fill:#007066; stroke:none;" d="M0 342C3.69865 343.552 8.01719 343 12 343L33 343L109 343L371 343C367.301 341.448 362.983 342 359 342L338 342L262 342L0 342M383 342C387.471 343.876 393.183 343 398 343C393.529 341.124 387.817 342 383 342z"/>
<path style="fill:#5a7371; stroke:none;" d="M398 342L399 343L398 342M411 342L412 343L411 342z"/>
<path style="fill:#007066; stroke:none;" d="M412 342C415.699 343.552 420.017 343 424 343L446 343L523 343L792 343C788.301 341.448 783.983 342 780 342L758 342L681 342L412 342M0 355C5.95103 357.497 14.5798 356 21 356L68 356L230 356L792 356C786.049 353.503 777.42 355 771 355L724 355L562 355L0 355z"/>
<path style="fill:#000000; stroke:none;" d="M0 356L0 415L792 415L792 356L0 356z"/>
<path style="fill:#004b44; stroke:none;" d="M0 415C5.95102 417.497 14.5798 416 21 416L68 416L230 416L792 416C786.049 413.503 777.42 415 771 415L724 415L562 415L0 415z"/>
<path style="fill:#009688; stroke:none;" d="M0 416L0 428L792 428L792 416L0 416z"/>
</svg>
